<?xml version="1.0" encoding="utf-8" standalone="no"?>
<!DOCTYPE svg PUBLIC "-//W3C//DTD SVG 1.1//EN"
  "http://www.w3.org/Graphics/SVG/1.1/DTD/svg11.dtd">
<!-- Created with matplotlib (http://matplotlib.org/) -->
<svg height="720pt" version="1.1" viewBox="0 0 1440 720" width="1440pt" xmlns="http://www.w3.org/2000/svg" xmlns:xlink="http://www.w3.org/1999/xlink">
 <defs>
  <style type="text/css">
*{stroke-linecap:butt;stroke-linejoin:round;}
  </style>
 </defs>
 <g id="figure_1">
  <g id="patch_1">
   <path d="M 0 720 
L 1440 720 
L 1440 0 
L 0 0 
z
" style="fill:#ffffff;"/>
  </g>
  <g id="axes_1">
   <g id="patch_2">
    <path d="M 180 438.141176 
L 1296 438.141176 
L 1296 86.4 
L 180 86.4 
z
" style="fill:#e5e5e5;"/>
   </g>
   <g id="matplotlib.axis_1">
    <g id="xtick_1">
     <g id="line2d_1">
      <path clip-path="url(#p4edfd27537)" d="M 285.654893 438.141176 
L 285.654893 86.4 
" style="fill:none;stroke:#ffffff;stroke-linecap:round;"/>
     </g>
     <g id="line2d_2"/>
     <g id="text_1">
      <!-- AGNOSTIC/ANONYMOUS -->
      <defs>
       <path d="M -0.140625 0 
L 27.34375 71.578125 
L 37.546875 71.578125 
L 66.84375 0 
L 56.0625 0 
L 47.703125 21.6875 
L 17.78125 21.6875 
L 9.90625 0 
z
M 20.515625 29.390625 
L 44.78125 29.390625 
L 37.3125 49.21875 
Q 33.890625 58.25 32.234375 64.0625 
Q 30.859375 57.171875 28.375 50.390625 
z
" id="ArialMT-41"/>
       <path d="M 41.21875 28.078125 
L 41.21875 36.46875 
L 71.53125 36.53125 
L 71.53125 9.96875 
Q 64.546875 4.390625 57.125 1.578125 
Q 49.703125 -1.21875 41.890625 -1.21875 
Q 31.34375 -1.21875 22.71875 3.296875 
Q 14.109375 7.8125 9.71875 16.359375 
Q 5.328125 24.90625 5.328125 35.453125 
Q 5.328125 45.90625 9.6875 54.953125 
Q 14.0625 64.015625 22.265625 68.40625 
Q 30.46875 72.796875 41.15625 72.796875 
Q 48.921875 72.796875 55.1875 70.28125 
Q 61.46875 67.78125 65.03125 63.28125 
Q 68.609375 58.796875 70.453125 51.5625 
L 61.921875 49.21875 
Q 60.296875 54.6875 57.90625 57.8125 
Q 55.515625 60.9375 51.0625 62.8125 
Q 46.625 64.703125 41.21875 64.703125 
Q 34.71875 64.703125 29.984375 62.71875 
Q 25.25 60.75 22.34375 57.515625 
Q 19.4375 54.296875 17.828125 50.4375 
Q 15.09375 43.796875 15.09375 36.03125 
Q 15.09375 26.46875 18.390625 20.015625 
Q 21.6875 13.578125 27.984375 10.453125 
Q 34.28125 7.328125 41.359375 7.328125 
Q 47.515625 7.328125 53.375 9.6875 
Q 59.234375 12.0625 62.25 14.75 
L 62.25 28.078125 
z
" id="ArialMT-47"/>
       <path d="M 7.625 0 
L 7.625 71.578125 
L 17.328125 71.578125 
L 54.9375 15.375 
L 54.9375 71.578125 
L 64.015625 71.578125 
L 64.015625 0 
L 54.296875 0 
L 16.703125 56.25 
L 16.703125 0 
z
" id="ArialMT-4e"/>
       <path d="M 4.828125 34.859375 
Q 4.828125 52.6875 14.390625 62.765625 
Q 23.96875 72.859375 39.109375 72.859375 
Q 49.03125 72.859375 56.984375 68.109375 
Q 64.9375 63.375 69.109375 54.90625 
Q 73.296875 46.4375 73.296875 35.6875 
Q 73.296875 24.8125 68.890625 16.21875 
Q 64.5 7.625 56.4375 3.203125 
Q 48.390625 -1.21875 39.0625 -1.21875 
Q 28.953125 -1.21875 20.984375 3.65625 
Q 13.03125 8.546875 8.921875 16.984375 
Q 4.828125 25.4375 4.828125 34.859375 
M 14.59375 34.71875 
Q 14.59375 21.78125 21.546875 14.328125 
Q 28.515625 6.890625 39.015625 6.890625 
Q 49.703125 6.890625 56.609375 14.40625 
Q 63.53125 21.921875 63.53125 35.75 
Q 63.53125 44.484375 60.578125 51 
Q 57.625 57.515625 51.921875 61.109375 
Q 46.234375 64.703125 39.15625 64.703125 
Q 29.109375 64.703125 21.84375 57.78125 
Q 14.59375 50.875 14.59375 34.71875 
" id="ArialMT-4f"/>
       <path d="M 4.5 23 
L 13.421875 23.78125 
Q 14.0625 18.40625 16.375 14.96875 
Q 18.703125 11.53125 23.578125 9.40625 
Q 28.46875 7.28125 34.578125 7.28125 
Q 39.984375 7.28125 44.140625 8.890625 
Q 48.296875 10.5 50.3125 13.296875 
Q 52.34375 16.109375 52.34375 19.4375 
Q 52.34375 22.796875 50.390625 25.3125 
Q 48.4375 27.828125 43.953125 29.546875 
Q 41.0625 30.671875 31.203125 33.03125 
Q 21.34375 35.40625 17.390625 37.5 
Q 12.25 40.1875 9.734375 44.15625 
Q 7.234375 48.140625 7.234375 53.078125 
Q 7.234375 58.5 10.296875 63.203125 
Q 13.375 67.921875 19.28125 70.359375 
Q 25.203125 72.796875 32.421875 72.796875 
Q 40.375 72.796875 46.453125 70.234375 
Q 52.546875 67.671875 55.8125 62.6875 
Q 59.078125 57.71875 59.328125 51.421875 
L 50.25 50.734375 
Q 49.515625 57.515625 45.28125 60.984375 
Q 41.0625 64.453125 32.8125 64.453125 
Q 24.21875 64.453125 20.28125 61.296875 
Q 16.359375 58.15625 16.359375 53.71875 
Q 16.359375 49.859375 19.140625 47.359375 
Q 21.875 44.875 33.421875 42.265625 
Q 44.96875 39.65625 49.265625 37.703125 
Q 55.515625 34.8125 58.484375 30.390625 
Q 61.46875 25.984375 61.46875 20.21875 
Q 61.46875 14.5 58.203125 9.4375 
Q 54.9375 4.390625 48.796875 1.578125 
Q 42.671875 -1.21875 35.015625 -1.21875 
Q 25.296875 -1.21875 18.71875 1.609375 
Q 12.15625 4.4375 8.421875 10.125 
Q 4.6875 15.828125 4.5 23 
" id="ArialMT-53"/>
       <path d="M 25.921875 0 
L 25.921875 63.140625 
L 2.34375 63.140625 
L 2.34375 71.578125 
L 59.078125 71.578125 
L 59.078125 63.140625 
L 35.40625 63.140625 
L 35.40625 0 
z
" id="ArialMT-54"/>
       <path d="M 9.328125 0 
L 9.328125 71.578125 
L 18.796875 71.578125 
L 18.796875 0 
z
" id="ArialMT-49"/>
       <path d="M 58.796875 25.09375 
L 68.265625 22.703125 
Q 65.28125 11.03125 57.546875 4.90625 
Q 49.8125 -1.21875 38.625 -1.21875 
Q 27.046875 -1.21875 19.796875 3.484375 
Q 12.546875 8.203125 8.765625 17.140625 
Q 4.984375 26.078125 4.984375 36.328125 
Q 4.984375 47.515625 9.25 55.828125 
Q 13.53125 64.15625 21.40625 68.46875 
Q 29.296875 72.796875 38.765625 72.796875 
Q 49.515625 72.796875 56.828125 67.328125 
Q 64.15625 61.859375 67.046875 51.953125 
L 57.71875 49.75 
Q 55.21875 57.5625 50.484375 61.125 
Q 45.75 64.703125 38.578125 64.703125 
Q 30.328125 64.703125 24.78125 60.734375 
Q 19.234375 56.78125 16.984375 50.109375 
Q 14.75 43.453125 14.75 36.375 
Q 14.75 27.25 17.40625 20.4375 
Q 20.0625 13.625 25.671875 10.25 
Q 31.296875 6.890625 37.84375 6.890625 
Q 45.796875 6.890625 51.3125 11.46875 
Q 56.84375 16.0625 58.796875 25.09375 
" id="ArialMT-43"/>
       <path d="M 0 -1.21875 
L 20.75 72.796875 
L 27.78125 72.796875 
L 7.078125 -1.21875 
z
" id="ArialMT-2f"/>
       <path d="M 27.875 0 
L 27.875 30.328125 
L 0.296875 71.578125 
L 11.8125 71.578125 
L 25.921875 50 
Q 29.828125 43.953125 33.203125 37.890625 
Q 36.421875 43.5 41.015625 50.53125 
L 54.890625 71.578125 
L 65.921875 71.578125 
L 37.359375 30.328125 
L 37.359375 0 
z
" id="ArialMT-59"/>
       <path d="M 7.421875 0 
L 7.421875 71.578125 
L 21.6875 71.578125 
L 38.625 20.90625 
Q 40.96875 13.8125 42.046875 10.296875 
Q 43.265625 14.203125 45.84375 21.78125 
L 62.984375 71.578125 
L 75.734375 71.578125 
L 75.734375 0 
L 66.609375 0 
L 66.609375 59.90625 
L 45.796875 0 
L 37.25 0 
L 16.546875 60.9375 
L 16.546875 0 
z
" id="ArialMT-4d"/>
       <path d="M 54.6875 71.578125 
L 64.15625 71.578125 
L 64.15625 30.21875 
Q 64.15625 19.4375 61.71875 13.078125 
Q 59.28125 6.734375 52.90625 2.75 
Q 46.53125 -1.21875 36.1875 -1.21875 
Q 26.125 -1.21875 19.71875 2.25 
Q 13.328125 5.71875 10.59375 12.28125 
Q 7.859375 18.84375 7.859375 30.21875 
L 7.859375 71.578125 
L 17.328125 71.578125 
L 17.328125 30.28125 
Q 17.328125 20.953125 19.0625 16.53125 
Q 20.796875 12.109375 25.015625 9.71875 
Q 29.25 7.328125 35.359375 7.328125 
Q 45.796875 7.328125 50.234375 12.0625 
Q 54.6875 16.796875 54.6875 30.28125 
z
" id="ArialMT-55"/>
      </defs>
      <g style="fill:#555555;" transform="translate(225.371299 452.298989)scale(0.1 -0.1)">
       <use xlink:href="#ArialMT-41"/>
       <use x="66.699219" xlink:href="#ArialMT-47"/>
       <use x="144.482422" xlink:href="#ArialMT-4e"/>
       <use x="216.699219" xlink:href="#ArialMT-4f"/>
       <use x="294.482422" xlink:href="#ArialMT-53"/>
       <use x="361.181641" xlink:href="#ArialMT-54"/>
       <use x="422.265625" xlink:href="#ArialMT-49"/>
       <use x="450.048828" xlink:href="#ArialMT-43"/>
       <use x="522.265625" xlink:href="#ArialMT-2f"/>
       <use x="550.048828" xlink:href="#ArialMT-41"/>
       <use x="616.748047" xlink:href="#ArialMT-4e"/>
       <use x="688.964844" xlink:href="#ArialMT-4f"/>
       <use x="766.748047" xlink:href="#ArialMT-4e"/>
       <use x="838.964844" xlink:href="#ArialMT-59"/>
       <use x="905.664062" xlink:href="#ArialMT-4d"/>
       <use x="988.964844" xlink:href="#ArialMT-4f"/>
       <use x="1066.748047" xlink:href="#ArialMT-55"/>
       <use x="1138.964844" xlink:href="#ArialMT-53"/>
      </g>
     </g>
    </g>
    <g id="xtick_2">
     <g id="line2d_3">
      <path clip-path="url(#p4edfd27537)" d="M 398.74117 438.141176 
L 398.74117 86.4 
" style="fill:none;stroke:#ffffff;stroke-linecap:round;"/>
     </g>
     <g id="line2d_4"/>
     <g id="text_2">
      <!-- BAPTIST -->
      <defs>
       <path d="M 7.328125 0 
L 7.328125 71.578125 
L 34.1875 71.578125 
Q 42.390625 71.578125 47.34375 69.40625 
Q 52.296875 67.234375 55.09375 62.71875 
Q 57.90625 58.203125 57.90625 53.265625 
Q 57.90625 48.6875 55.421875 44.625 
Q 52.9375 40.578125 47.90625 38.09375 
Q 54.390625 36.1875 57.875 31.59375 
Q 61.375 27 61.375 20.75 
Q 61.375 15.71875 59.25 11.390625 
Q 57.125 7.078125 54 4.734375 
Q 50.875 2.390625 46.15625 1.1875 
Q 41.453125 0 34.625 0 
z
M 16.796875 41.5 
L 32.28125 41.5 
Q 38.578125 41.5 41.3125 42.328125 
Q 44.921875 43.40625 46.75 45.890625 
Q 48.578125 48.390625 48.578125 52.15625 
Q 48.578125 55.71875 46.875 58.421875 
Q 45.171875 61.140625 41.984375 62.140625 
Q 38.8125 63.140625 31.109375 63.140625 
L 16.796875 63.140625 
z
M 16.796875 8.453125 
L 34.625 8.453125 
Q 39.203125 8.453125 41.0625 8.796875 
Q 44.34375 9.375 46.53125 10.734375 
Q 48.734375 12.109375 50.140625 14.71875 
Q 51.5625 17.328125 51.5625 20.75 
Q 51.5625 24.75 49.515625 27.703125 
Q 47.46875 30.671875 43.828125 31.859375 
Q 40.1875 33.0625 33.34375 33.0625 
L 16.796875 33.0625 
z
" id="ArialMT-42"/>
       <path d="M 7.71875 0 
L 7.71875 71.578125 
L 34.71875 71.578125 
Q 41.84375 71.578125 45.609375 70.90625 
Q 50.875 70.015625 54.4375 67.546875 
Q 58.015625 65.09375 60.1875 60.640625 
Q 62.359375 56.203125 62.359375 50.875 
Q 62.359375 41.75 56.546875 35.421875 
Q 50.734375 29.109375 35.546875 29.109375 
L 17.1875 29.109375 
L 17.1875 0 
z
M 17.1875 37.546875 
L 35.6875 37.546875 
Q 44.875 37.546875 48.734375 40.96875 
Q 52.59375 44.390625 52.59375 50.59375 
Q 52.59375 55.078125 50.3125 58.265625 
Q 48.046875 61.46875 44.34375 62.5 
Q 41.9375 63.140625 35.5 63.140625 
L 17.1875 63.140625 
z
" id="ArialMT-50"/>
      </defs>
      <g style="fill:#555555;" transform="translate(377.90367 452.298989)scale(0.1 -0.1)">
       <use xlink:href="#ArialMT-42"/>
       <use x="66.699219" xlink:href="#ArialMT-41"/>
       <use x="133.398438" xlink:href="#ArialMT-50"/>
       <use x="200.097656" xlink:href="#ArialMT-54"/>
       <use x="261.181641" xlink:href="#ArialMT-49"/>
       <use x="288.964844" xlink:href="#ArialMT-53"/>
       <use x="355.664062" xlink:href="#ArialMT-54"/>
      </g>
     </g>
    </g>
    <g id="xtick_3">
     <g id="line2d_5">
      <path clip-path="url(#p4edfd27537)" d="M 511.827446 438.141176 
L 511.827446 86.4 
" style="fill:none;stroke:#ffffff;stroke-linecap:round;"/>
     </g>
     <g id="line2d_6"/>
     <g id="text_3">
      <!-- CHRISTIAN -->
      <defs>
       <path d="M 8.015625 0 
L 8.015625 71.578125 
L 17.484375 71.578125 
L 17.484375 42.1875 
L 54.6875 42.1875 
L 54.6875 71.578125 
L 64.15625 71.578125 
L 64.15625 0 
L 54.6875 0 
L 54.6875 33.734375 
L 17.484375 33.734375 
L 17.484375 0 
z
" id="ArialMT-48"/>
       <path d="M 7.859375 0 
L 7.859375 71.578125 
L 39.59375 71.578125 
Q 49.171875 71.578125 54.140625 69.640625 
Q 59.125 67.71875 62.109375 62.828125 
Q 65.09375 57.953125 65.09375 52.046875 
Q 65.09375 44.4375 60.15625 39.203125 
Q 55.21875 33.984375 44.921875 32.5625 
Q 48.6875 30.765625 50.640625 29 
Q 54.78125 25.203125 58.5 19.484375 
L 70.953125 0 
L 59.03125 0 
L 49.5625 14.890625 
Q 45.40625 21.34375 42.71875 24.75 
Q 40.046875 28.171875 37.921875 29.53125 
Q 35.796875 30.90625 33.59375 31.453125 
Q 31.984375 31.78125 28.328125 31.78125 
L 17.328125 31.78125 
L 17.328125 0 
z
M 17.328125 39.984375 
L 37.703125 39.984375 
Q 44.1875 39.984375 47.84375 41.328125 
Q 51.515625 42.671875 53.421875 45.625 
Q 55.328125 48.578125 55.328125 52.046875 
Q 55.328125 57.125 51.640625 60.390625 
Q 47.953125 63.671875 39.984375 63.671875 
L 17.328125 63.671875 
z
" id="ArialMT-52"/>
      </defs>
      <g style="fill:#555555;" transform="translate(484.881353 452.298989)scale(0.1 -0.1)">
       <use xlink:href="#ArialMT-43"/>
       <use x="72.216797" xlink:href="#ArialMT-48"/>
       <use x="144.433594" xlink:href="#ArialMT-52"/>
       <use x="216.650391" xlink:href="#ArialMT-49"/>
       <use x="244.433594" xlink:href="#ArialMT-53"/>
       <use x="311.132812" xlink:href="#ArialMT-54"/>
       <use x="372.216797" xlink:href="#ArialMT-49"/>
       <use x="400" xlink:href="#ArialMT-41"/>
       <use x="466.699219" xlink:href="#ArialMT-4e"/>
      </g>
     </g>
    </g>
    <g id="xtick_4">
     <g id="line2d_7">
      <path clip-path="url(#p4edfd27537)" d="M 624.913723 438.141176 
L 624.913723 86.4 
" style="fill:none;stroke:#ffffff;stroke-linecap:round;"/>
     </g>
     <g id="line2d_8"/>
     <g id="text_4">
      <!-- LUTHERAN -->
      <defs>
       <path d="M 7.328125 0 
L 7.328125 71.578125 
L 16.796875 71.578125 
L 16.796875 8.453125 
L 52.046875 8.453125 
L 52.046875 0 
z
" id="ArialMT-4c"/>
       <path d="M 7.90625 0 
L 7.90625 71.578125 
L 59.671875 71.578125 
L 59.671875 63.140625 
L 17.390625 63.140625 
L 17.390625 41.21875 
L 56.984375 41.21875 
L 56.984375 32.8125 
L 17.390625 32.8125 
L 17.390625 8.453125 
L 61.328125 8.453125 
L 61.328125 0 
z
" id="ArialMT-45"/>
      </defs>
      <g style="fill:#555555;" transform="translate(597.965286 452.298989)scale(0.1 -0.1)">
       <use xlink:href="#ArialMT-4c"/>
       <use x="55.615234" xlink:href="#ArialMT-55"/>
       <use x="127.832031" xlink:href="#ArialMT-54"/>
       <use x="188.916016" xlink:href="#ArialMT-48"/>
       <use x="261.132812" xlink:href="#ArialMT-45"/>
       <use x="327.832031" xlink:href="#ArialMT-52"/>
       <use x="400.048828" xlink:href="#ArialMT-41"/>
       <use x="466.748047" xlink:href="#ArialMT-4e"/>
      </g>
     </g>
    </g>
    <g id="xtick_5">
     <g id="line2d_9">
      <path clip-path="url(#p4edfd27537)" d="M 738 438.141176 
L 738 86.4 
" style="fill:none;stroke:#ffffff;stroke-linecap:round;"/>
     </g>
     <g id="line2d_10"/>
     <g id="text_5">
      <!-- METHODIST -->
      <defs>
       <path d="M 7.71875 0 
L 7.71875 71.578125 
L 32.375 71.578125 
Q 40.71875 71.578125 45.125 70.5625 
Q 51.265625 69.140625 55.609375 65.4375 
Q 61.28125 60.640625 64.078125 53.1875 
Q 66.890625 45.75 66.890625 36.1875 
Q 66.890625 28.03125 64.984375 21.734375 
Q 63.09375 15.4375 60.109375 11.296875 
Q 57.125 7.171875 53.578125 4.796875 
Q 50.046875 2.4375 45.046875 1.21875 
Q 40.046875 0 33.546875 0 
z
M 17.1875 8.453125 
L 32.46875 8.453125 
Q 39.546875 8.453125 43.578125 9.765625 
Q 47.609375 11.078125 50 13.484375 
Q 53.375 16.84375 55.25 22.53125 
Q 57.125 28.21875 57.125 36.328125 
Q 57.125 47.5625 53.4375 53.59375 
Q 49.75 59.625 44.484375 61.671875 
Q 40.671875 63.140625 32.234375 63.140625 
L 17.1875 63.140625 
z
" id="ArialMT-44"/>
      </defs>
      <g style="fill:#555555;" transform="translate(708.557031 452.298989)scale(0.1 -0.1)">
       <use xlink:href="#ArialMT-4d"/>
       <use x="83.300781" xlink:href="#ArialMT-45"/>
       <use x="150" xlink:href="#ArialMT-54"/>
       <use x="211.083984" xlink:href="#ArialMT-48"/>
       <use x="283.300781" xlink:href="#ArialMT-4f"/>
       <use x="361.083984" xlink:href="#ArialMT-44"/>
       <use x="433.300781" xlink:href="#ArialMT-49"/>
       <use x="461.083984" xlink:href="#ArialMT-53"/>
       <use x="527.783203" xlink:href="#ArialMT-54"/>
      </g>
     </g>
    </g>
    <g id="xtick_6">
     <g id="line2d_11">
      <path clip-path="url(#p4edfd27537)" d="M 851.086277 438.141176 
L 851.086277 86.4 
" style="fill:none;stroke:#ffffff;stroke-linecap:round;"/>
     </g>
     <g id="line2d_12"/>
     <g id="text_6">
      <!-- PRESBYTARIAN -->
      <g style="fill:#555555;" transform="translate(812.469871 452.298989)scale(0.1 -0.1)">
       <use xlink:href="#ArialMT-50"/>
       <use x="66.699219" xlink:href="#ArialMT-52"/>
       <use x="138.916016" xlink:href="#ArialMT-45"/>
       <use x="205.615234" xlink:href="#ArialMT-53"/>
       <use x="272.314453" xlink:href="#ArialMT-42"/>
       <use x="339.013672" xlink:href="#ArialMT-59"/>
       <use x="405.712891" xlink:href="#ArialMT-54"/>
       <use x="466.6875" xlink:href="#ArialMT-41"/>
       <use x="533.386719" xlink:href="#ArialMT-52"/>
       <use x="605.603516" xlink:href="#ArialMT-49"/>
       <use x="633.386719" xlink:href="#ArialMT-41"/>
       <use x="700.085938" xlink:href="#ArialMT-4e"/>
      </g>
     </g>
    </g>
    <g id="xtick_7">
     <g id="line2d_13">
      <path clip-path="url(#p4edfd27537)" d="M 964.172554 438.141176 
L 964.172554 86.4 
" style="fill:none;stroke:#ffffff;stroke-linecap:round;"/>
     </g>
     <g id="line2d_14"/>
     <g id="text_7">
      <!-- PROTESTANT -->
      <g style="fill:#555555;" transform="translate(930.564741 452.298989)scale(0.1 -0.1)">
       <use xlink:href="#ArialMT-50"/>
       <use x="66.699219" xlink:href="#ArialMT-52"/>
       <use x="138.916016" xlink:href="#ArialMT-4f"/>
       <use x="216.699219" xlink:href="#ArialMT-54"/>
       <use x="277.783203" xlink:href="#ArialMT-45"/>
       <use x="344.482422" xlink:href="#ArialMT-53"/>
       <use x="411.181641" xlink:href="#ArialMT-54"/>
       <use x="472.15625" xlink:href="#ArialMT-41"/>
       <use x="538.855469" xlink:href="#ArialMT-4e"/>
       <use x="611.072266" xlink:href="#ArialMT-54"/>
      </g>
     </g>
    </g>
    <g id="xtick_8">
     <g id="line2d_15">
      <path clip-path="url(#p4edfd27537)" d="M 1077.25883 438.141176 
L 1077.25883 86.4 
" style="fill:none;stroke:#ffffff;stroke-linecap:round;"/>
     </g>
     <g id="line2d_16"/>
     <g id="text_8">
      <!-- REFORMED -->
      <defs>
       <path d="M 8.203125 0 
L 8.203125 71.578125 
L 56.5 71.578125 
L 56.5 63.140625 
L 17.671875 63.140625 
L 17.671875 40.96875 
L 51.265625 40.96875 
L 51.265625 32.515625 
L 17.671875 32.515625 
L 17.671875 0 
z
" id="ArialMT-46"/>
      </defs>
      <g style="fill:#555555;" transform="translate(1048.647893 452.298989)scale(0.1 -0.1)">
       <use xlink:href="#ArialMT-52"/>
       <use x="72.216797" xlink:href="#ArialMT-45"/>
       <use x="138.916016" xlink:href="#ArialMT-46"/>
       <use x="200" xlink:href="#ArialMT-4f"/>
       <use x="277.783203" xlink:href="#ArialMT-52"/>
       <use x="350" xlink:href="#ArialMT-4d"/>
       <use x="433.300781" xlink:href="#ArialMT-45"/>
       <use x="500" xlink:href="#ArialMT-44"/>
      </g>
     </g>
    </g>
    <g id="xtick_9">
     <g id="line2d_17">
      <path clip-path="url(#p4edfd27537)" d="M 1190.345107 438.141176 
L 1190.345107 86.4 
" style="fill:none;stroke:#ffffff;stroke-linecap:round;"/>
     </g>
     <g id="line2d_18"/>
     <g id="text_9">
      <!-- UNITARIAN -->
      <g style="fill:#555555;" transform="translate(1163.404482 452.298989)scale(0.1 -0.1)">
       <use xlink:href="#ArialMT-55"/>
       <use x="72.216797" xlink:href="#ArialMT-4e"/>
       <use x="144.433594" xlink:href="#ArialMT-49"/>
       <use x="172.216797" xlink:href="#ArialMT-54"/>
       <use x="233.191406" xlink:href="#ArialMT-41"/>
       <use x="299.890625" xlink:href="#ArialMT-52"/>
       <use x="372.107422" xlink:href="#ArialMT-49"/>
       <use x="399.890625" xlink:href="#ArialMT-41"/>
       <use x="466.589844" xlink:href="#ArialMT-4e"/>
      </g>
     </g>
    </g>
   </g>
   <g id="matplotlib.axis_2">
    <g id="ytick_1">
     <g id="line2d_19">
      <path clip-path="url(#p4edfd27537)" d="M 180 438.141176 
L 1296 438.141176 
" style="fill:none;stroke:#ffffff;stroke-linecap:round;"/>
     </g>
     <g id="line2d_20"/>
     <g id="text_10">
      <!-- 0 -->
      <defs>
       <path d="M 4.15625 35.296875 
Q 4.15625 48 6.765625 55.734375 
Q 9.375 63.484375 14.515625 67.671875 
Q 19.671875 71.875 27.484375 71.875 
Q 33.25 71.875 37.59375 69.546875 
Q 41.9375 67.234375 44.765625 62.859375 
Q 47.609375 58.5 49.21875 52.21875 
Q 50.828125 45.953125 50.828125 35.296875 
Q 50.828125 22.703125 48.234375 14.96875 
Q 45.65625 7.234375 40.5 3 
Q 35.359375 -1.21875 27.484375 -1.21875 
Q 17.140625 -1.21875 11.234375 6.203125 
Q 4.15625 15.140625 4.15625 35.296875 
M 13.1875 35.296875 
Q 13.1875 17.671875 17.3125 11.828125 
Q 21.4375 6 27.484375 6 
Q 33.546875 6 37.671875 11.859375 
Q 41.796875 17.71875 41.796875 35.296875 
Q 41.796875 52.984375 37.671875 58.78125 
Q 33.546875 64.59375 27.390625 64.59375 
Q 21.34375 64.59375 17.71875 59.46875 
Q 13.1875 52.9375 13.1875 35.296875 
" id="ArialMT-30"/>
      </defs>
      <g style="fill:#555555;" transform="translate(167.439063 441.720083)scale(0.1 -0.1)">
       <use xlink:href="#ArialMT-30"/>
      </g>
     </g>
    </g>
    <g id="ytick_2">
     <g id="line2d_21">
      <path clip-path="url(#p4edfd27537)" d="M 180 369.320056 
L 1296 369.320056 
" style="fill:none;stroke:#ffffff;stroke-linecap:round;"/>
     </g>
     <g id="line2d_22"/>
     <g id="text_11">
      <!-- 1 -->
      <defs>
       <path d="M 37.25 0 
L 28.46875 0 
L 28.46875 56 
Q 25.296875 52.984375 20.140625 49.953125 
Q 14.984375 46.921875 10.890625 45.40625 
L 10.890625 53.90625 
Q 18.265625 57.375 23.78125 62.296875 
Q 29.296875 67.234375 31.59375 71.875 
L 37.25 71.875 
z
" id="ArialMT-31"/>
      </defs>
      <g style="fill:#555555;" transform="translate(167.439063 372.898962)scale(0.1 -0.1)">
       <use xlink:href="#ArialMT-31"/>
      </g>
     </g>
    </g>
    <g id="ytick_3">
     <g id="line2d_23">
      <path clip-path="url(#p4edfd27537)" d="M 180 300.498936 
L 1296 300.498936 
" style="fill:none;stroke:#ffffff;stroke-linecap:round;"/>
     </g>
     <g id="line2d_24"/>
     <g id="text_12">
      <!-- 2 -->
      <defs>
       <path d="M 50.34375 8.453125 
L 50.34375 0 
L 3.03125 0 
Q 2.9375 3.171875 4.046875 6.109375 
Q 5.859375 10.9375 9.828125 15.625 
Q 13.8125 20.3125 21.34375 26.46875 
Q 33.015625 36.03125 37.109375 41.625 
Q 41.21875 47.21875 41.21875 52.203125 
Q 41.21875 57.421875 37.46875 61 
Q 33.734375 64.59375 27.734375 64.59375 
Q 21.390625 64.59375 17.578125 60.78125 
Q 13.765625 56.984375 13.71875 50.25 
L 4.6875 51.171875 
Q 5.609375 61.28125 11.65625 66.578125 
Q 17.71875 71.875 27.9375 71.875 
Q 38.234375 71.875 44.234375 66.15625 
Q 50.25 60.453125 50.25 52 
Q 50.25 47.703125 48.484375 43.546875 
Q 46.734375 39.40625 42.65625 34.8125 
Q 38.578125 30.21875 29.109375 22.21875 
Q 21.1875 15.578125 18.9375 13.203125 
Q 16.703125 10.84375 15.234375 8.453125 
z
" id="ArialMT-32"/>
      </defs>
      <g style="fill:#555555;" transform="translate(167.439063 304.077842)scale(0.1 -0.1)">
       <use xlink:href="#ArialMT-32"/>
      </g>
     </g>
    </g>
    <g id="ytick_4">
     <g id="line2d_25">
      <path clip-path="url(#p4edfd27537)" d="M 180 231.677816 
L 1296 231.677816 
" style="fill:none;stroke:#ffffff;stroke-linecap:round;"/>
     </g>
     <g id="line2d_26"/>
     <g id="text_13">
      <!-- 3 -->
      <defs>
       <path d="M 4.203125 18.890625 
L 12.984375 20.0625 
Q 14.5 12.59375 18.140625 9.296875 
Q 21.78125 6 27 6 
Q 33.203125 6 37.46875 10.296875 
Q 41.75 14.59375 41.75 20.953125 
Q 41.75 27 37.796875 30.921875 
Q 33.84375 34.859375 27.734375 34.859375 
Q 25.25 34.859375 21.53125 33.890625 
L 22.515625 41.609375 
Q 23.390625 41.5 23.921875 41.5 
Q 29.546875 41.5 34.03125 44.421875 
Q 38.53125 47.359375 38.53125 53.46875 
Q 38.53125 58.296875 35.25 61.46875 
Q 31.984375 64.65625 26.8125 64.65625 
Q 21.6875 64.65625 18.265625 61.421875 
Q 14.84375 58.203125 13.875 51.765625 
L 5.078125 53.328125 
Q 6.6875 62.15625 12.390625 67.015625 
Q 18.109375 71.875 26.609375 71.875 
Q 32.46875 71.875 37.390625 69.359375 
Q 42.328125 66.84375 44.9375 62.5 
Q 47.5625 58.15625 47.5625 53.265625 
Q 47.5625 48.640625 45.0625 44.828125 
Q 42.578125 41.015625 37.703125 38.765625 
Q 44.046875 37.3125 47.5625 32.6875 
Q 51.078125 28.078125 51.078125 21.140625 
Q 51.078125 11.765625 44.234375 5.25 
Q 37.40625 -1.265625 26.953125 -1.265625 
Q 17.53125 -1.265625 11.296875 4.34375 
Q 5.078125 9.96875 4.203125 18.890625 
" id="ArialMT-33"/>
      </defs>
      <g style="fill:#555555;" transform="translate(167.439063 235.256722)scale(0.1 -0.1)">
       <use xlink:href="#ArialMT-33"/>
      </g>
     </g>
    </g>
    <g id="ytick_5">
     <g id="line2d_27">
      <path clip-path="url(#p4edfd27537)" d="M 180 162.856695 
L 1296 162.856695 
" style="fill:none;stroke:#ffffff;stroke-linecap:round;"/>
     </g>
     <g id="line2d_28"/>
     <g id="text_14">
      <!-- 4 -->
      <defs>
       <path d="M 32.328125 0 
L 32.328125 17.140625 
L 1.265625 17.140625 
L 1.265625 25.203125 
L 33.9375 71.578125 
L 41.109375 71.578125 
L 41.109375 25.203125 
L 50.78125 25.203125 
L 50.78125 17.140625 
L 41.109375 17.140625 
L 41.109375 0 
z
M 32.328125 25.203125 
L 32.328125 57.46875 
L 9.90625 25.203125 
z
" id="ArialMT-34"/>
      </defs>
      <g style="fill:#555555;" transform="translate(167.439063 166.435602)scale(0.1 -0.1)">
       <use xlink:href="#ArialMT-34"/>
      </g>
     </g>
    </g>
    <g id="ytick_6">
     <g id="line2d_29">
      <path clip-path="url(#p4edfd27537)" d="M 180 94.035575 
L 1296 94.035575 
" style="fill:none;stroke:#ffffff;stroke-linecap:round;"/>
     </g>
     <g id="line2d_30"/>
     <g id="text_15">
      <!-- 5 -->
      <defs>
       <path d="M 4.15625 18.75 
L 13.375 19.53125 
Q 14.40625 12.796875 18.140625 9.390625 
Q 21.875 6 27.15625 6 
Q 33.5 6 37.890625 10.78125 
Q 42.28125 15.578125 42.28125 23.484375 
Q 42.28125 31 38.0625 35.34375 
Q 33.84375 39.703125 27 39.703125 
Q 22.75 39.703125 19.328125 37.765625 
Q 15.921875 35.84375 13.96875 32.765625 
L 5.71875 33.84375 
L 12.640625 70.609375 
L 48.25 70.609375 
L 48.25 62.203125 
L 19.671875 62.203125 
L 15.828125 42.96875 
Q 22.265625 47.46875 29.34375 47.46875 
Q 38.71875 47.46875 45.15625 40.96875 
Q 51.609375 34.46875 51.609375 24.265625 
Q 51.609375 14.546875 45.953125 7.46875 
Q 39.0625 -1.21875 27.15625 -1.21875 
Q 17.390625 -1.21875 11.203125 4.25 
Q 5.03125 9.71875 4.15625 18.75 
" id="ArialMT-35"/>
      </defs>
      <g style="fill:#555555;" transform="translate(167.439063 97.614481)scale(0.1 -0.1)">
       <use xlink:href="#ArialMT-35"/>
      </g>
     </g>
    </g>
    <g id="text_16">
     <!-- Ratings/ Approvals -->
     <defs>
      <path d="M 40.4375 6.390625 
Q 35.546875 2.25 31.03125 0.53125 
Q 26.515625 -1.171875 21.34375 -1.171875 
Q 12.796875 -1.171875 8.203125 3 
Q 3.609375 7.171875 3.609375 13.671875 
Q 3.609375 17.484375 5.34375 20.625 
Q 7.078125 23.78125 9.890625 25.6875 
Q 12.703125 27.59375 16.21875 28.5625 
Q 18.796875 29.25 24.03125 29.890625 
Q 34.671875 31.15625 39.703125 32.90625 
Q 39.75 34.71875 39.75 35.203125 
Q 39.75 40.578125 37.25 42.78125 
Q 33.890625 45.75 27.25 45.75 
Q 21.046875 45.75 18.09375 43.578125 
Q 15.140625 41.40625 13.71875 35.890625 
L 5.125 37.0625 
Q 6.296875 42.578125 8.984375 45.96875 
Q 11.671875 49.359375 16.75 51.1875 
Q 21.828125 53.03125 28.515625 53.03125 
Q 35.15625 53.03125 39.296875 51.46875 
Q 43.453125 49.90625 45.40625 47.53125 
Q 47.359375 45.171875 48.140625 41.546875 
Q 48.578125 39.3125 48.578125 33.453125 
L 48.578125 21.734375 
Q 48.578125 9.46875 49.140625 6.21875 
Q 49.703125 2.984375 51.375 0 
L 42.1875 0 
Q 40.828125 2.734375 40.4375 6.390625 
M 39.703125 26.03125 
Q 34.90625 24.078125 25.34375 22.703125 
Q 19.921875 21.921875 17.671875 20.9375 
Q 15.4375 19.96875 14.203125 18.09375 
Q 12.984375 16.21875 12.984375 13.921875 
Q 12.984375 10.40625 15.640625 8.0625 
Q 18.3125 5.71875 23.4375 5.71875 
Q 28.515625 5.71875 32.46875 7.9375 
Q 36.421875 10.15625 38.28125 14.015625 
Q 39.703125 17 39.703125 22.796875 
z
" id="ArialMT-61"/>
      <path d="M 25.78125 7.859375 
L 27.046875 0.09375 
Q 23.34375 -0.6875 20.40625 -0.6875 
Q 15.625 -0.6875 12.984375 0.828125 
Q 10.359375 2.34375 9.28125 4.8125 
Q 8.203125 7.28125 8.203125 15.1875 
L 8.203125 45.015625 
L 1.765625 45.015625 
L 1.765625 51.859375 
L 8.203125 51.859375 
L 8.203125 64.703125 
L 16.9375 69.96875 
L 16.9375 51.859375 
L 25.78125 51.859375 
L 25.78125 45.015625 
L 16.9375 45.015625 
L 16.9375 14.703125 
Q 16.9375 10.9375 17.40625 9.859375 
Q 17.875 8.796875 18.921875 8.15625 
Q 19.96875 7.515625 21.921875 7.515625 
Q 23.390625 7.515625 25.78125 7.859375 
" id="ArialMT-74"/>
      <path d="M 6.640625 61.46875 
L 6.640625 71.578125 
L 15.4375 71.578125 
L 15.4375 61.46875 
z
M 6.640625 0 
L 6.640625 51.859375 
L 15.4375 51.859375 
L 15.4375 0 
z
" id="ArialMT-69"/>
      <path d="M 6.59375 0 
L 6.59375 51.859375 
L 14.5 51.859375 
L 14.5 44.484375 
Q 20.21875 53.03125 31 53.03125 
Q 35.6875 53.03125 39.625 51.34375 
Q 43.5625 49.65625 45.515625 46.921875 
Q 47.46875 44.1875 48.25 40.4375 
Q 48.734375 37.984375 48.734375 31.890625 
L 48.734375 0 
L 39.9375 0 
L 39.9375 31.546875 
Q 39.9375 36.921875 38.90625 39.578125 
Q 37.890625 42.234375 35.28125 43.8125 
Q 32.671875 45.40625 29.15625 45.40625 
Q 23.53125 45.40625 19.453125 41.84375 
Q 15.375 38.28125 15.375 28.328125 
L 15.375 0 
z
" id="ArialMT-6e"/>
      <path d="M 4.984375 -4.296875 
L 13.53125 -5.5625 
Q 14.0625 -9.515625 16.5 -11.328125 
Q 19.78125 -13.765625 25.4375 -13.765625 
Q 31.546875 -13.765625 34.859375 -11.328125 
Q 38.1875 -8.890625 39.359375 -4.5 
Q 40.046875 -1.8125 39.984375 6.78125 
Q 34.234375 0 25.640625 0 
Q 14.9375 0 9.078125 7.71875 
Q 3.21875 15.4375 3.21875 26.21875 
Q 3.21875 33.640625 5.90625 39.90625 
Q 8.59375 46.1875 13.6875 49.609375 
Q 18.796875 53.03125 25.6875 53.03125 
Q 34.859375 53.03125 40.828125 45.609375 
L 40.828125 51.859375 
L 48.921875 51.859375 
L 48.921875 7.03125 
Q 48.921875 -5.078125 46.453125 -10.125 
Q 44 -15.1875 38.640625 -18.109375 
Q 33.296875 -21.046875 25.484375 -21.046875 
Q 16.21875 -21.046875 10.5 -16.875 
Q 4.78125 -12.703125 4.984375 -4.296875 
M 12.25 26.859375 
Q 12.25 16.65625 16.296875 11.96875 
Q 20.359375 7.28125 26.46875 7.28125 
Q 32.515625 7.28125 36.609375 11.9375 
Q 40.71875 16.609375 40.71875 26.5625 
Q 40.71875 36.078125 36.5 40.90625 
Q 32.28125 45.75 26.3125 45.75 
Q 20.453125 45.75 16.34375 40.984375 
Q 12.25 36.234375 12.25 26.859375 
" id="ArialMT-67"/>
      <path d="M 3.078125 15.484375 
L 11.765625 16.84375 
Q 12.5 11.625 15.84375 8.84375 
Q 19.1875 6.0625 25.203125 6.0625 
Q 31.25 6.0625 34.171875 8.515625 
Q 37.109375 10.984375 37.109375 14.3125 
Q 37.109375 17.28125 34.515625 19 
Q 32.71875 20.171875 25.53125 21.96875 
Q 15.875 24.421875 12.140625 26.203125 
Q 8.40625 27.984375 6.46875 31.125 
Q 4.546875 34.28125 4.546875 38.09375 
Q 4.546875 41.546875 6.125 44.5 
Q 7.71875 47.46875 10.453125 49.421875 
Q 12.5 50.921875 16.03125 51.96875 
Q 19.578125 53.03125 23.640625 53.03125 
Q 29.734375 53.03125 34.34375 51.265625 
Q 38.96875 49.515625 41.15625 46.5 
Q 43.359375 43.5 44.1875 38.484375 
L 35.59375 37.3125 
Q 35.015625 41.3125 32.203125 43.546875 
Q 29.390625 45.796875 24.265625 45.796875 
Q 18.21875 45.796875 15.625 43.796875 
Q 13.03125 41.796875 13.03125 39.109375 
Q 13.03125 37.40625 14.109375 36.03125 
Q 15.1875 34.625 17.484375 33.6875 
Q 18.796875 33.203125 25.25 31.453125 
Q 34.578125 28.953125 38.25 27.359375 
Q 41.9375 25.78125 44.03125 22.75 
Q 46.140625 19.734375 46.140625 15.234375 
Q 46.140625 10.84375 43.578125 6.953125 
Q 41.015625 3.078125 36.171875 0.953125 
Q 31.34375 -1.171875 25.25 -1.171875 
Q 15.140625 -1.171875 9.84375 3.03125 
Q 4.546875 7.234375 3.078125 15.484375 
" id="ArialMT-73"/>
      <path id="ArialMT-20"/>
      <path d="M 6.59375 -19.875 
L 6.59375 51.859375 
L 14.59375 51.859375 
L 14.59375 45.125 
Q 17.4375 49.078125 21 51.046875 
Q 24.5625 53.03125 29.640625 53.03125 
Q 36.28125 53.03125 41.359375 49.609375 
Q 46.4375 46.1875 49.015625 39.953125 
Q 51.609375 33.734375 51.609375 26.3125 
Q 51.609375 18.359375 48.75 11.984375 
Q 45.90625 5.609375 40.453125 2.21875 
Q 35.015625 -1.171875 29 -1.171875 
Q 24.609375 -1.171875 21.109375 0.6875 
Q 17.625 2.546875 15.375 5.375 
L 15.375 -19.875 
z
M 14.546875 25.640625 
Q 14.546875 15.625 18.59375 10.84375 
Q 22.65625 6.0625 28.421875 6.0625 
Q 34.28125 6.0625 38.453125 11.015625 
Q 42.625 15.96875 42.625 26.375 
Q 42.625 36.28125 38.546875 41.203125 
Q 34.46875 46.140625 28.8125 46.140625 
Q 23.1875 46.140625 18.859375 40.890625 
Q 14.546875 35.640625 14.546875 25.640625 
" id="ArialMT-70"/>
      <path d="M 6.5 0 
L 6.5 51.859375 
L 14.40625 51.859375 
L 14.40625 44 
Q 17.4375 49.515625 20 51.265625 
Q 22.5625 53.03125 25.640625 53.03125 
Q 30.078125 53.03125 34.671875 50.203125 
L 31.640625 42.046875 
Q 28.421875 43.953125 25.203125 43.953125 
Q 22.3125 43.953125 20.015625 42.21875 
Q 17.71875 40.484375 16.75 37.40625 
Q 15.28125 32.71875 15.28125 27.15625 
L 15.28125 0 
z
" id="ArialMT-72"/>
      <path d="M 3.328125 25.921875 
Q 3.328125 40.328125 11.328125 47.265625 
Q 18.015625 53.03125 27.640625 53.03125 
Q 38.328125 53.03125 45.109375 46.015625 
Q 51.90625 39.015625 51.90625 26.65625 
Q 51.90625 16.65625 48.90625 10.90625 
Q 45.90625 5.171875 40.15625 2 
Q 34.421875 -1.171875 27.640625 -1.171875 
Q 16.75 -1.171875 10.03125 5.8125 
Q 3.328125 12.796875 3.328125 25.921875 
M 12.359375 25.921875 
Q 12.359375 15.96875 16.703125 11.015625 
Q 21.046875 6.0625 27.640625 6.0625 
Q 34.1875 6.0625 38.53125 11.03125 
Q 42.875 16.015625 42.875 26.21875 
Q 42.875 35.84375 38.5 40.796875 
Q 34.125 45.75 27.640625 45.75 
Q 21.046875 45.75 16.703125 40.8125 
Q 12.359375 35.890625 12.359375 25.921875 
" id="ArialMT-6f"/>
      <path d="M 21 0 
L 1.265625 51.859375 
L 10.546875 51.859375 
L 21.6875 20.796875 
Q 23.484375 15.765625 25 10.359375 
Q 26.171875 14.453125 28.265625 20.21875 
L 39.796875 51.859375 
L 48.828125 51.859375 
L 29.203125 0 
z
" id="ArialMT-76"/>
      <path d="M 6.390625 0 
L 6.390625 71.578125 
L 15.1875 71.578125 
L 15.1875 0 
z
" id="ArialMT-6c"/>
     </defs>
     <g style="fill:#555555;" transform="translate(160.913438 312.621838)rotate(-90)scale(0.12 -0.12)">
      <use xlink:href="#ArialMT-52"/>
      <use x="72.216797" xlink:href="#ArialMT-61"/>
      <use x="127.832031" xlink:href="#ArialMT-74"/>
      <use x="155.615234" xlink:href="#ArialMT-69"/>
      <use x="177.832031" xlink:href="#ArialMT-6e"/>
      <use x="233.447266" xlink:href="#ArialMT-67"/>
      <use x="289.0625" xlink:href="#ArialMT-73"/>
      <use x="339.0625" xlink:href="#ArialMT-2f"/>
      <use x="366.845703" xlink:href="#ArialMT-20"/>
      <use x="394.550781" xlink:href="#ArialMT-41"/>
      <use x="461.25" xlink:href="#ArialMT-70"/>
      <use x="516.865234" xlink:href="#ArialMT-70"/>
      <use x="572.480469" xlink:href="#ArialMT-72"/>
      <use x="605.78125" xlink:href="#ArialMT-6f"/>
      <use x="661.396484" xlink:href="#ArialMT-76"/>
      <use x="711.396484" xlink:href="#ArialMT-61"/>
      <use x="767.011719" xlink:href="#ArialMT-6c"/>
      <use x="789.228516" xlink:href="#ArialMT-73"/>
     </g>
    </g>
   </g>
   <g id="patch_3">
    <path clip-path="url(#p4edfd27537)" d="M 230.727273 438.141176 
L 243.651419 438.141176 
L 243.651419 363.314911 
L 230.727273 363.314911 
z
"/>
   </g>
   <g id="patch_4">
    <path clip-path="url(#p4edfd27537)" d="M 343.81355 438.141176 
L 356.737695 438.141176 
L 356.737695 352.025604 
L 343.81355 352.025604 
z
"/>
   </g>
   <g id="patch_5">
    <path clip-path="url(#p4edfd27537)" d="M 456.899826 438.141176 
L 469.823972 438.141176 
L 469.823972 344.837432 
L 456.899826 344.837432 
z
"/>
   </g>
   <g id="patch_6">
    <path clip-path="url(#p4edfd27537)" d="M 569.986103 438.141176 
L 582.910249 438.141176 
L 582.910249 290.863453 
L 569.986103 290.863453 
z
"/>
   </g>
   <g id="patch_7">
    <path clip-path="url(#p4edfd27537)" d="M 683.07238 438.141176 
L 695.996526 438.141176 
L 695.996526 316.288965 
L 683.07238 316.288965 
z
"/>
   </g>
   <g id="patch_8">
    <path clip-path="url(#p4edfd27537)" d="M 796.158657 438.141176 
L 809.082803 438.141176 
L 809.082803 295.153542 
L 796.158657 295.153542 
z
"/>
   </g>
   <g id="patch_9">
    <path clip-path="url(#p4edfd27537)" d="M 909.244933 438.141176 
L 922.169079 438.141176 
L 922.169079 370.338676 
L 909.244933 370.338676 
z
"/>
   </g>
   <g id="patch_10">
    <path clip-path="url(#p4edfd27537)" d="M 1022.33121 438.141176 
L 1035.255356 438.141176 
L 1035.255356 298.038465 
L 1022.33121 298.038465 
z
"/>
   </g>
   <g id="patch_11">
    <path clip-path="url(#p4edfd27537)" d="M 1135.417487 438.141176 
L 1148.341633 438.141176 
L 1148.341633 272.878655 
L 1135.417487 272.878655 
z
"/>
   </g>
   <g id="patch_12">
    <path clip-path="url(#p4edfd27537)" d="M 246.882455 438.141176 
L 259.806601 438.141176 
L 259.806601 353.281815 
L 246.882455 353.281815 
z
" style="fill:#0072b2;"/>
   </g>
   <g id="patch_13">
    <path clip-path="url(#p4edfd27537)" d="M 359.968732 438.141176 
L 372.892878 438.141176 
L 372.892878 336.432661 
L 359.968732 336.432661 
z
" style="fill:#0072b2;"/>
   </g>
   <g id="patch_14">
    <path clip-path="url(#p4edfd27537)" d="M 473.055009 438.141176 
L 485.979155 438.141176 
L 485.979155 318.948683 
L 473.055009 318.948683 
z
" style="fill:#0072b2;"/>
   </g>
   <g id="patch_15">
    <path clip-path="url(#p4edfd27537)" d="M 586.141285 438.141176 
L 599.065431 438.141176 
L 599.065431 253.812453 
L 586.141285 253.812453 
z
" style="fill:#0072b2;"/>
   </g>
   <g id="patch_16">
    <path clip-path="url(#p4edfd27537)" d="M 699.227562 438.141176 
L 712.151708 438.141176 
L 712.151708 249.541893 
L 699.227562 249.541893 
z
" style="fill:#0072b2;"/>
   </g>
   <g id="patch_17">
    <path clip-path="url(#p4edfd27537)" d="M 812.313839 438.141176 
L 825.237985 438.141176 
L 825.237985 201.39116 
L 812.313839 201.39116 
z
" style="fill:#0072b2;"/>
   </g>
   <g id="patch_18">
    <path clip-path="url(#p4edfd27537)" d="M 925.400116 438.141176 
L 938.324262 438.141176 
L 938.324262 352.258009 
L 925.400116 352.258009 
z
" style="fill:#0072b2;"/>
   </g>
   <g id="patch_19">
    <path clip-path="url(#p4edfd27537)" d="M 1038.486393 438.141176 
L 1051.410539 438.141176 
L 1051.410539 258.009119 
L 1038.486393 258.009119 
z
" style="fill:#0072b2;"/>
   </g>
   <g id="patch_20">
    <path clip-path="url(#p4edfd27537)" d="M 1151.572669 438.141176 
L 1164.496815 438.141176 
L 1164.496815 170.147899 
L 1151.572669 170.147899 
z
" style="fill:#0072b2;"/>
   </g>
   <g id="patch_21">
    <path clip-path="url(#p4edfd27537)" d="M 263.037638 438.141176 
L 275.961783 438.141176 
L 275.961783 326.933218 
L 263.037638 326.933218 
z
" style="fill:#009e73;"/>
   </g>
   <g id="patch_22">
    <path clip-path="url(#p4edfd27537)" d="M 376.123914 438.141176 
L 389.04806 438.141176 
L 389.04806 330.05373 
L 376.123914 330.05373 
z
" style="fill:#009e73;"/>
   </g>
   <g id="patch_23">
    <path clip-path="url(#p4edfd27537)" d="M 489.210191 438.141176 
L 502.134337 438.141176 
L 502.134337 290.106184 
L 489.210191 290.106184 
z
" style="fill:#009e73;"/>
   </g>
   <g id="patch_24">
    <path clip-path="url(#p4edfd27537)" d="M 602.296468 438.141176 
L 615.220614 438.141176 
L 615.220614 226.024204 
L 602.296468 226.024204 
z
" style="fill:#009e73;"/>
   </g>
   <g id="patch_25">
    <path clip-path="url(#p4edfd27537)" d="M 715.382745 438.141176 
L 728.306891 438.141176 
L 728.306891 152.525801 
L 715.382745 152.525801 
z
" style="fill:#009e73;"/>
   </g>
   <g id="patch_26">
    <path clip-path="url(#p4edfd27537)" d="M 828.469021 438.141176 
L 841.393167 438.141176 
L 841.393167 135.757491 
L 828.469021 135.757491 
z
" style="fill:#009e73;"/>
   </g>
   <g id="patch_27">
    <path clip-path="url(#p4edfd27537)" d="M 941.555298 438.141176 
L 954.479444 438.141176 
L 954.479444 334.177342 
L 941.555298 334.177342 
z
" style="fill:#009e73;"/>
   </g>
   <g id="patch_28">
    <path clip-path="url(#p4edfd27537)" d="M 1054.641575 438.141176 
L 1067.565721 438.141176 
L 1067.565721 217.979773 
L 1054.641575 217.979773 
z
" style="fill:#009e73;"/>
   </g>
   <g id="patch_29">
    <path clip-path="url(#p4edfd27537)" d="M 1167.727852 438.141176 
L 1180.651998 438.141176 
L 1180.651998 103.14958 
L 1167.727852 103.14958 
z
" style="fill:#009e73;"/>
   </g>
   <g id="patch_30">
    <path clip-path="url(#p4edfd27537)" d="M 279.19282 438.141176 
L 292.116966 438.141176 
L 292.116966 268.328686 
L 279.19282 268.328686 
z
" style="fill:#d55e00;"/>
   </g>
   <g id="patch_31">
    <path clip-path="url(#p4edfd27537)" d="M 392.279097 438.141176 
L 405.203243 438.141176 
L 405.203243 329.699344 
L 392.279097 329.699344 
z
" style="fill:#d55e00;"/>
   </g>
   <g id="patch_32">
    <path clip-path="url(#p4edfd27537)" d="M 505.365373 438.141176 
L 518.289519 438.141176 
L 518.289519 293.928684 
L 505.365373 293.928684 
z
" style="fill:#d55e00;"/>
   </g>
   <g id="patch_33">
    <path clip-path="url(#p4edfd27537)" d="M 618.45165 438.141176 
L 631.375796 438.141176 
L 631.375796 276.043053 
L 618.45165 276.043053 
z
" style="fill:#d55e00;"/>
   </g>
   <g id="patch_34">
    <path clip-path="url(#p4edfd27537)" d="M 731.537927 438.141176 
L 744.462073 438.141176 
L 744.462073 286.019944 
L 731.537927 286.019944 
z
" style="fill:#d55e00;"/>
   </g>
   <g id="patch_35">
    <path clip-path="url(#p4edfd27537)" d="M 844.624204 438.141176 
L 857.54835 438.141176 
L 857.54835 252.96047 
L 844.624204 252.96047 
z
" style="fill:#d55e00;"/>
   </g>
   <g id="patch_36">
    <path clip-path="url(#p4edfd27537)" d="M 957.710481 438.141176 
L 970.634627 438.141176 
L 970.634627 349.997926 
L 957.710481 349.997926 
z
" style="fill:#d55e00;"/>
   </g>
   <g id="patch_37">
    <path clip-path="url(#p4edfd27537)" d="M 1070.796757 438.141176 
L 1083.720903 438.141176 
L 1083.720903 211.308216 
L 1070.796757 211.308216 
z
" style="fill:#d55e00;"/>
   </g>
   <g id="patch_38">
    <path clip-path="url(#p4edfd27537)" d="M 1183.883034 438.141176 
L 1196.80718 438.141176 
L 1196.80718 246.079328 
L 1183.883034 246.079328 
z
" style="fill:#d55e00;"/>
   </g>
   <g id="patch_39">
    <path clip-path="url(#p4edfd27537)" d="M 295.348002 438.141176 
L 308.272148 438.141176 
L 308.272148 346.530573 
L 295.348002 346.530573 
z
" style="fill:#cc79a7;"/>
   </g>
   <g id="patch_40">
    <path clip-path="url(#p4edfd27537)" d="M 408.434279 438.141176 
L 421.358425 438.141176 
L 421.358425 327.218649 
L 408.434279 327.218649 
z
" style="fill:#cc79a7;"/>
   </g>
   <g id="patch_41">
    <path clip-path="url(#p4edfd27537)" d="M 521.520556 438.141176 
L 534.444702 438.141176 
L 534.444702 334.238682 
L 521.520556 334.238682 
z
" style="fill:#cc79a7;"/>
   </g>
   <g id="patch_42">
    <path clip-path="url(#p4edfd27537)" d="M 634.606833 438.141176 
L 647.530979 438.141176 
L 647.530979 228.803029 
L 634.606833 228.803029 
z
" style="fill:#cc79a7;"/>
   </g>
   <g id="patch_43">
    <path clip-path="url(#p4edfd27537)" d="M 747.693109 438.141176 
L 760.617255 438.141176 
L 760.617255 190.556109 
L 747.693109 190.556109 
z
" style="fill:#cc79a7;"/>
   </g>
   <g id="patch_44">
    <path clip-path="url(#p4edfd27537)" d="M 860.779386 438.141176 
L 873.703532 438.141176 
L 873.703532 159.198087 
L 860.779386 159.198087 
z
" style="fill:#cc79a7;"/>
   </g>
   <g id="patch_45">
    <path clip-path="url(#p4edfd27537)" d="M 973.865663 438.141176 
L 986.789809 438.141176 
L 986.789809 354.518092 
L 973.865663 354.518092 
z
" style="fill:#cc79a7;"/>
   </g>
   <g id="patch_46">
    <path clip-path="url(#p4edfd27537)" d="M 1086.95194 438.141176 
L 1099.876086 438.141176 
L 1099.876086 244.666004 
L 1086.95194 244.666004 
z
" style="fill:#cc79a7;"/>
   </g>
   <g id="patch_47">
    <path clip-path="url(#p4edfd27537)" d="M 1200.038217 438.141176 
L 1212.962362 438.141176 
L 1212.962362 134.415462 
L 1200.038217 134.415462 
z
" style="fill:#cc79a7;"/>
   </g>
   <g id="patch_48">
    <path clip-path="url(#p4edfd27537)" d="M 311.503185 438.141176 
L 324.427331 438.141176 
L 324.427331 402.88469 
L 311.503185 402.88469 
z
" style="fill:#f0e442;"/>
   </g>
   <g id="patch_49">
    <path clip-path="url(#p4edfd27537)" d="M 424.589461 438.141176 
L 437.513607 438.141176 
L 437.513607 398.804433 
L 424.589461 398.804433 
z
" style="fill:#f0e442;"/>
   </g>
   <g id="patch_50">
    <path clip-path="url(#p4edfd27537)" d="M 537.675738 438.141176 
L 550.599884 438.141176 
L 550.599884 396.962429 
L 537.675738 396.962429 
z
" style="fill:#f0e442;"/>
   </g>
   <g id="patch_51">
    <path clip-path="url(#p4edfd27537)" d="M 650.762015 438.141176 
L 663.686161 438.141176 
L 663.686161 402.016452 
L 650.762015 402.016452 
z
" style="fill:#f0e442;"/>
   </g>
   <g id="patch_52">
    <path clip-path="url(#p4edfd27537)" d="M 763.848292 438.141176 
L 776.772438 438.141176 
L 776.772438 412.528928 
L 763.848292 412.528928 
z
" style="fill:#f0e442;"/>
   </g>
   <g id="patch_53">
    <path clip-path="url(#p4edfd27537)" d="M 876.934569 438.141176 
L 889.858715 438.141176 
L 889.858715 395.948104 
L 876.934569 395.948104 
z
" style="fill:#f0e442;"/>
   </g>
   <g id="patch_54">
    <path clip-path="url(#p4edfd27537)" d="M 990.020845 438.141176 
L 1002.944991 438.141176 
L 1002.944991 411.020176 
L 990.020845 411.020176 
z
" style="fill:#f0e442;"/>
   </g>
   <g id="patch_55">
    <path clip-path="url(#p4edfd27537)" d="M 1103.107122 438.141176 
L 1116.031268 438.141176 
L 1116.031268 384.768715 
L 1103.107122 384.768715 
z
" style="fill:#f0e442;"/>
   </g>
   <g id="patch_56">
    <path clip-path="url(#p4edfd27537)" d="M 1216.193399 438.141176 
L 1229.117545 438.141176 
L 1229.117545 424.741513 
L 1216.193399 424.741513 
z
" style="fill:#f0e442;"/>
   </g>
   <g id="patch_57">
    <path clip-path="url(#p4edfd27537)" d="M 327.658367 438.141176 
L 340.582513 438.141176 
L 340.582513 323.557597 
L 327.658367 323.557597 
z
" style="fill:#56b4e9;"/>
   </g>
   <g id="patch_58">
    <path clip-path="url(#p4edfd27537)" d="M 440.744644 438.141176 
L 453.66879 438.141176 
L 453.66879 298.513458 
L 440.744644 298.513458 
z
" style="fill:#56b4e9;"/>
   </g>
   <g id="patch_59">
    <path clip-path="url(#p4edfd27537)" d="M 553.830921 438.141176 
L 566.755067 438.141176 
L 566.755067 291.322434 
L 553.830921 291.322434 
z
" style="fill:#56b4e9;"/>
   </g>
   <g id="patch_60">
    <path clip-path="url(#p4edfd27537)" d="M 666.917197 438.141176 
L 679.841343 438.141176 
L 679.841343 293.642278 
L 666.917197 293.642278 
z
" style="fill:#56b4e9;"/>
   </g>
   <g id="patch_61">
    <path clip-path="url(#p4edfd27537)" d="M 780.003474 438.141176 
L 792.92762 438.141176 
L 792.92762 299.990261 
L 780.003474 299.990261 
z
" style="fill:#56b4e9;"/>
   </g>
   <g id="patch_62">
    <path clip-path="url(#p4edfd27537)" d="M 893.089751 438.141176 
L 906.013897 438.141176 
L 906.013897 278.745125 
L 893.089751 278.745125 
z
" style="fill:#56b4e9;"/>
   </g>
   <g id="patch_63">
    <path clip-path="url(#p4edfd27537)" d="M 1006.176028 438.141176 
L 1019.100174 438.141176 
L 1019.100174 302.536175 
L 1006.176028 302.536175 
z
" style="fill:#56b4e9;"/>
   </g>
   <g id="patch_64">
    <path clip-path="url(#p4edfd27537)" d="M 1119.262305 438.141176 
L 1132.18645 438.141176 
L 1132.18645 341.40359 
L 1119.262305 341.40359 
z
" style="fill:#56b4e9;"/>
   </g>
   <g id="patch_65">
    <path clip-path="url(#p4edfd27537)" d="M 1232.348581 438.141176 
L 1245.272727 438.141176 
L 1245.272727 353.276639 
L 1232.348581 353.276639 
z
" style="fill:#56b4e9;"/>
   </g>
   <g id="patch_66">
    <path d="M 180 438.141176 
L 180 86.4 
" style="fill:none;stroke:#ffffff;stroke-linecap:square;stroke-linejoin:miter;"/>
   </g>
   <g id="patch_67">
    <path d="M 1296 438.141176 
L 1296 86.4 
" style="fill:none;stroke:#ffffff;stroke-linecap:square;stroke-linejoin:miter;"/>
   </g>
   <g id="patch_68">
    <path d="M 180 438.141176 
L 1296 438.141176 
" style="fill:none;stroke:#ffffff;stroke-linecap:square;stroke-linejoin:miter;"/>
   </g>
   <g id="patch_69">
    <path d="M 180 86.4 
L 1296 86.4 
" style="fill:none;stroke:#ffffff;stroke-linecap:square;stroke-linejoin:miter;"/>
   </g>
   <g id="legend_1">
    <g id="patch_70">
     <path d="M 189 102.557812 
L 209 102.557812 
L 209 95.557812 
L 189 95.557812 
z
"/>
    </g>
    <g id="text_17">
     <!-- Watch Porn -->
     <defs>
      <path d="M 20.21875 0 
L 1.21875 71.578125 
L 10.9375 71.578125 
L 21.828125 24.65625 
Q 23.578125 17.28125 24.859375 10.015625 
Q 27.59375 21.484375 28.078125 23.25 
L 41.703125 71.578125 
L 53.125 71.578125 
L 63.375 35.359375 
Q 67.234375 21.875 68.953125 10.015625 
Q 70.3125 16.796875 72.515625 25.59375 
L 83.734375 71.578125 
L 93.265625 71.578125 
L 73.640625 0 
L 64.5 0 
L 49.421875 54.546875 
Q 47.515625 61.375 47.171875 62.9375 
Q 46.046875 58.015625 45.0625 54.546875 
L 29.890625 0 
z
" id="ArialMT-57"/>
      <path d="M 40.4375 19 
L 49.078125 17.875 
Q 47.65625 8.9375 41.8125 3.875 
Q 35.984375 -1.171875 27.484375 -1.171875 
Q 16.84375 -1.171875 10.375 5.78125 
Q 3.90625 12.75 3.90625 25.734375 
Q 3.90625 34.125 6.6875 40.421875 
Q 9.46875 46.734375 15.15625 49.875 
Q 20.84375 53.03125 27.546875 53.03125 
Q 35.984375 53.03125 41.359375 48.75 
Q 46.734375 44.484375 48.25 36.625 
L 39.703125 35.296875 
Q 38.484375 40.53125 35.375 43.15625 
Q 32.28125 45.796875 27.875 45.796875 
Q 21.234375 45.796875 17.078125 41.03125 
Q 12.9375 36.28125 12.9375 25.984375 
Q 12.9375 15.53125 16.9375 10.796875 
Q 20.953125 6.0625 27.390625 6.0625 
Q 32.5625 6.0625 36.03125 9.234375 
Q 39.5 12.40625 40.4375 19 
" id="ArialMT-63"/>
      <path d="M 6.59375 0 
L 6.59375 71.578125 
L 15.375 71.578125 
L 15.375 45.90625 
Q 21.53125 53.03125 30.90625 53.03125 
Q 36.671875 53.03125 40.921875 50.75 
Q 45.171875 48.484375 47 44.484375 
Q 48.828125 40.484375 48.828125 32.859375 
L 48.828125 0 
L 40.046875 0 
L 40.046875 32.859375 
Q 40.046875 39.453125 37.1875 42.453125 
Q 34.328125 45.453125 29.109375 45.453125 
Q 25.203125 45.453125 21.75 43.421875 
Q 18.3125 41.40625 16.84375 37.9375 
Q 15.375 34.46875 15.375 28.375 
L 15.375 0 
z
" id="ArialMT-68"/>
     </defs>
     <g style="fill:#262626;" transform="translate(217 102.557812)scale(0.1 -0.1)">
      <use xlink:href="#ArialMT-57"/>
      <use x="94.337891" xlink:href="#ArialMT-61"/>
      <use x="149.953125" xlink:href="#ArialMT-74"/>
      <use x="177.736328" xlink:href="#ArialMT-63"/>
      <use x="227.736328" xlink:href="#ArialMT-68"/>
      <use x="283.351562" xlink:href="#ArialMT-20"/>
      <use x="311.134766" xlink:href="#ArialMT-50"/>
      <use x="377.833984" xlink:href="#ArialMT-6f"/>
      <use x="433.449219" xlink:href="#ArialMT-72"/>
      <use x="466.75" xlink:href="#ArialMT-6e"/>
     </g>
    </g>
    <g id="patch_71">
     <path d="M 189 116.703125 
L 209 116.703125 
L 209 109.703125 
L 189 109.703125 
z
" style="fill:#0072b2;"/>
    </g>
    <g id="text_18">
     <!-- Accept pre-marital sex -->
     <defs>
      <path d="M 42.09375 16.703125 
L 51.171875 15.578125 
Q 49.03125 7.625 43.21875 3.21875 
Q 37.40625 -1.171875 28.375 -1.171875 
Q 17 -1.171875 10.328125 5.828125 
Q 3.65625 12.84375 3.65625 25.484375 
Q 3.65625 38.578125 10.390625 45.796875 
Q 17.140625 53.03125 27.875 53.03125 
Q 38.28125 53.03125 44.875 45.953125 
Q 51.46875 38.875 51.46875 26.03125 
Q 51.46875 25.25 51.421875 23.6875 
L 12.75 23.6875 
Q 13.234375 15.140625 17.578125 10.59375 
Q 21.921875 6.0625 28.421875 6.0625 
Q 33.25 6.0625 36.671875 8.59375 
Q 40.09375 11.140625 42.09375 16.703125 
M 13.234375 30.90625 
L 42.1875 30.90625 
Q 41.609375 37.453125 38.875 40.71875 
Q 34.671875 45.796875 27.984375 45.796875 
Q 21.921875 45.796875 17.796875 41.75 
Q 13.671875 37.703125 13.234375 30.90625 
" id="ArialMT-65"/>
      <path d="M 3.171875 21.484375 
L 3.171875 30.328125 
L 30.171875 30.328125 
L 30.171875 21.484375 
z
" id="ArialMT-2d"/>
      <path d="M 6.59375 0 
L 6.59375 51.859375 
L 14.453125 51.859375 
L 14.453125 44.578125 
Q 16.890625 48.390625 20.9375 50.703125 
Q 25 53.03125 30.171875 53.03125 
Q 35.9375 53.03125 39.625 50.640625 
Q 43.3125 48.25 44.828125 43.953125 
Q 50.984375 53.03125 60.84375 53.03125 
Q 68.5625 53.03125 72.703125 48.75 
Q 76.859375 44.484375 76.859375 35.59375 
L 76.859375 0 
L 68.109375 0 
L 68.109375 32.671875 
Q 68.109375 37.9375 67.25 40.25 
Q 66.40625 42.578125 64.15625 43.984375 
Q 61.921875 45.40625 58.890625 45.40625 
Q 53.421875 45.40625 49.796875 41.765625 
Q 46.1875 38.140625 46.1875 30.125 
L 46.1875 0 
L 37.40625 0 
L 37.40625 33.6875 
Q 37.40625 39.546875 35.25 42.46875 
Q 33.109375 45.40625 28.21875 45.40625 
Q 24.515625 45.40625 21.359375 43.453125 
Q 18.21875 41.5 16.796875 37.734375 
Q 15.375 33.984375 15.375 26.90625 
L 15.375 0 
z
" id="ArialMT-6d"/>
      <path d="M 0.734375 0 
L 19.671875 26.953125 
L 2.15625 51.859375 
L 13.140625 51.859375 
L 21.09375 39.703125 
Q 23.34375 36.234375 24.703125 33.890625 
Q 26.859375 37.109375 28.65625 39.59375 
L 37.40625 51.859375 
L 47.90625 51.859375 
L 29.984375 27.4375 
L 49.265625 0 
L 38.484375 0 
L 27.828125 16.109375 
L 25 20.453125 
L 11.375 0 
z
" id="ArialMT-78"/>
     </defs>
     <g style="fill:#262626;" transform="translate(217 116.703125)scale(0.1 -0.1)">
      <use xlink:href="#ArialMT-41"/>
      <use x="66.699219" xlink:href="#ArialMT-63"/>
      <use x="116.699219" xlink:href="#ArialMT-63"/>
      <use x="166.699219" xlink:href="#ArialMT-65"/>
      <use x="222.314453" xlink:href="#ArialMT-70"/>
      <use x="277.929688" xlink:href="#ArialMT-74"/>
      <use x="305.712891" xlink:href="#ArialMT-20"/>
      <use x="333.496094" xlink:href="#ArialMT-70"/>
      <use x="389.111328" xlink:href="#ArialMT-72"/>
      <use x="422.412109" xlink:href="#ArialMT-65"/>
      <use x="478.027344" xlink:href="#ArialMT-2d"/>
      <use x="511.328125" xlink:href="#ArialMT-6d"/>
      <use x="594.628906" xlink:href="#ArialMT-61"/>
      <use x="650.244141" xlink:href="#ArialMT-72"/>
      <use x="683.544922" xlink:href="#ArialMT-69"/>
      <use x="705.761719" xlink:href="#ArialMT-74"/>
      <use x="733.544922" xlink:href="#ArialMT-61"/>
      <use x="789.160156" xlink:href="#ArialMT-6c"/>
      <use x="811.376953" xlink:href="#ArialMT-20"/>
      <use x="839.160156" xlink:href="#ArialMT-73"/>
      <use x="889.160156" xlink:href="#ArialMT-65"/>
      <use x="944.775391" xlink:href="#ArialMT-78"/>
     </g>
    </g>
    <g id="patch_72">
     <path d="M 189 130.848437 
L 209 130.848437 
L 209 123.848437 
L 189 123.848437 
z
" style="fill:#009e73;"/>
    </g>
    <g id="text_19">
     <!-- Accept Homosexuality -->
     <defs>
      <path d="M 40.578125 0 
L 40.578125 7.625 
Q 34.515625 -1.171875 24.125 -1.171875 
Q 19.53125 -1.171875 15.546875 0.578125 
Q 11.578125 2.34375 9.640625 5 
Q 7.71875 7.671875 6.9375 11.53125 
Q 6.390625 14.109375 6.390625 19.734375 
L 6.390625 51.859375 
L 15.1875 51.859375 
L 15.1875 23.09375 
Q 15.1875 16.21875 15.71875 13.8125 
Q 16.546875 10.359375 19.234375 8.375 
Q 21.921875 6.390625 25.875 6.390625 
Q 29.828125 6.390625 33.296875 8.421875 
Q 36.765625 10.453125 38.203125 13.9375 
Q 39.65625 17.4375 39.65625 24.078125 
L 39.65625 51.859375 
L 48.4375 51.859375 
L 48.4375 0 
z
" id="ArialMT-75"/>
      <path d="M 6.203125 -19.96875 
L 5.21875 -11.71875 
Q 8.109375 -12.5 10.25 -12.5 
Q 13.1875 -12.5 14.9375 -11.515625 
Q 16.703125 -10.546875 17.828125 -8.796875 
Q 18.65625 -7.46875 20.515625 -2.25 
Q 20.75 -1.515625 21.296875 -0.09375 
L 1.609375 51.859375 
L 11.078125 51.859375 
L 21.875 21.828125 
Q 23.96875 16.109375 25.640625 9.8125 
Q 27.15625 15.875 29.25 21.625 
L 40.328125 51.859375 
L 49.125 51.859375 
L 29.390625 -0.875 
Q 26.21875 -9.421875 24.46875 -12.640625 
Q 22.125 -17 19.09375 -19.015625 
Q 16.0625 -21.046875 11.859375 -21.046875 
Q 9.328125 -21.046875 6.203125 -19.96875 
" id="ArialMT-79"/>
     </defs>
     <g style="fill:#262626;" transform="translate(217 130.848437)scale(0.1 -0.1)">
      <use xlink:href="#ArialMT-41"/>
      <use x="66.699219" xlink:href="#ArialMT-63"/>
      <use x="116.699219" xlink:href="#ArialMT-63"/>
      <use x="166.699219" xlink:href="#ArialMT-65"/>
      <use x="222.314453" xlink:href="#ArialMT-70"/>
      <use x="277.929688" xlink:href="#ArialMT-74"/>
      <use x="305.712891" xlink:href="#ArialMT-20"/>
      <use x="333.496094" xlink:href="#ArialMT-48"/>
      <use x="405.712891" xlink:href="#ArialMT-6f"/>
      <use x="461.328125" xlink:href="#ArialMT-6d"/>
      <use x="544.628906" xlink:href="#ArialMT-6f"/>
      <use x="600.244141" xlink:href="#ArialMT-73"/>
      <use x="650.244141" xlink:href="#ArialMT-65"/>
      <use x="705.859375" xlink:href="#ArialMT-78"/>
      <use x="755.859375" xlink:href="#ArialMT-75"/>
      <use x="811.474609" xlink:href="#ArialMT-61"/>
      <use x="867.089844" xlink:href="#ArialMT-6c"/>
      <use x="889.306641" xlink:href="#ArialMT-69"/>
      <use x="911.523438" xlink:href="#ArialMT-74"/>
      <use x="939.306641" xlink:href="#ArialMT-79"/>
     </g>
    </g>
    <g id="patch_73">
     <path d="M 189 145.232812 
L 209 145.232812 
L 209 138.232812 
L 189 138.232812 
z
" style="fill:#d55e00;"/>
    </g>
    <g id="text_20">
     <!-- Smoke Marijuana -->
     <defs>
      <path d="M 6.640625 0 
L 6.640625 71.578125 
L 15.4375 71.578125 
L 15.4375 30.765625 
L 36.234375 51.859375 
L 47.609375 51.859375 
L 27.78125 32.625 
L 49.609375 0 
L 38.765625 0 
L 21.625 26.515625 
L 15.4375 20.5625 
L 15.4375 0 
z
" id="ArialMT-6b"/>
      <path d="M 6.546875 61.375 
L 6.546875 71.578125 
L 15.328125 71.578125 
L 15.328125 61.375 
z
M -4.59375 -20.125 
L -2.9375 -12.640625 
Q -0.296875 -13.328125 1.21875 -13.328125 
Q 3.90625 -13.328125 5.21875 -11.546875 
Q 6.546875 -9.765625 6.546875 -2.640625 
L 6.546875 51.859375 
L 15.328125 51.859375 
L 15.328125 -2.828125 
Q 15.328125 -12.40625 12.84375 -16.15625 
Q 9.671875 -21.046875 2.296875 -21.046875 
Q -1.265625 -21.046875 -4.59375 -20.125 
" id="ArialMT-6a"/>
     </defs>
     <g style="fill:#262626;" transform="translate(217 145.232812)scale(0.1 -0.1)">
      <use xlink:href="#ArialMT-53"/>
      <use x="66.699219" xlink:href="#ArialMT-6d"/>
      <use x="150" xlink:href="#ArialMT-6f"/>
      <use x="205.615234" xlink:href="#ArialMT-6b"/>
      <use x="255.615234" xlink:href="#ArialMT-65"/>
      <use x="311.230469" xlink:href="#ArialMT-20"/>
      <use x="339.013672" xlink:href="#ArialMT-4d"/>
      <use x="422.314453" xlink:href="#ArialMT-61"/>
      <use x="477.929688" xlink:href="#ArialMT-72"/>
      <use x="511.230469" xlink:href="#ArialMT-69"/>
      <use x="533.447266" xlink:href="#ArialMT-6a"/>
      <use x="555.664062" xlink:href="#ArialMT-75"/>
      <use x="611.279297" xlink:href="#ArialMT-61"/>
      <use x="666.894531" xlink:href="#ArialMT-6e"/>
      <use x="722.509766" xlink:href="#ArialMT-61"/>
     </g>
    </g>
    <g id="patch_74">
     <path d="M 189 159.495312 
L 209 159.495312 
L 209 152.495312 
L 189 152.495312 
z
" style="fill:#cc79a7;"/>
    </g>
    <g id="text_21">
     <!-- Pro Abortion -->
     <defs>
      <path d="M 14.703125 0 
L 6.546875 0 
L 6.546875 71.578125 
L 15.328125 71.578125 
L 15.328125 46.046875 
Q 20.90625 53.03125 29.546875 53.03125 
Q 34.328125 53.03125 38.59375 51.09375 
Q 42.875 49.171875 45.625 45.671875 
Q 48.390625 42.1875 49.953125 37.25 
Q 51.515625 32.328125 51.515625 26.703125 
Q 51.515625 13.375 44.921875 6.09375 
Q 38.328125 -1.171875 29.109375 -1.171875 
Q 19.921875 -1.171875 14.703125 6.5 
z
M 14.59375 26.3125 
Q 14.59375 17 17.140625 12.84375 
Q 21.296875 6.0625 28.375 6.0625 
Q 34.125 6.0625 38.328125 11.0625 
Q 42.53125 16.0625 42.53125 25.984375 
Q 42.53125 36.140625 38.5 40.96875 
Q 34.46875 45.796875 28.765625 45.796875 
Q 23 45.796875 18.796875 40.796875 
Q 14.59375 35.796875 14.59375 26.3125 
" id="ArialMT-62"/>
     </defs>
     <g style="fill:#262626;" transform="translate(217 159.495312)scale(0.1 -0.1)">
      <use xlink:href="#ArialMT-50"/>
      <use x="66.699219" xlink:href="#ArialMT-72"/>
      <use x="100" xlink:href="#ArialMT-6f"/>
      <use x="155.615234" xlink:href="#ArialMT-20"/>
      <use x="183.320312" xlink:href="#ArialMT-41"/>
      <use x="250.019531" xlink:href="#ArialMT-62"/>
      <use x="305.634766" xlink:href="#ArialMT-6f"/>
      <use x="361.25" xlink:href="#ArialMT-72"/>
      <use x="394.550781" xlink:href="#ArialMT-74"/>
      <use x="422.333984" xlink:href="#ArialMT-69"/>
      <use x="444.550781" xlink:href="#ArialMT-6f"/>
      <use x="500.166016" xlink:href="#ArialMT-6e"/>
     </g>
    </g>
    <g id="patch_75">
     <path d="M 189 173.640625 
L 209 173.640625 
L 209 166.640625 
L 189 166.640625 
z
" style="fill:#f0e442;"/>
    </g>
    <g id="text_22">
     <!-- Are under 18 -->
     <defs>
      <path d="M 40.234375 0 
L 40.234375 6.546875 
Q 35.296875 -1.171875 25.734375 -1.171875 
Q 19.53125 -1.171875 14.328125 2.25 
Q 9.125 5.671875 6.265625 11.796875 
Q 3.421875 17.921875 3.421875 25.875 
Q 3.421875 33.640625 6 39.96875 
Q 8.59375 46.296875 13.765625 49.65625 
Q 18.953125 53.03125 25.34375 53.03125 
Q 30.03125 53.03125 33.6875 51.046875 
Q 37.359375 49.078125 39.65625 45.90625 
L 39.65625 71.578125 
L 48.390625 71.578125 
L 48.390625 0 
z
M 12.453125 25.875 
Q 12.453125 15.921875 16.640625 10.984375 
Q 20.84375 6.0625 26.5625 6.0625 
Q 32.328125 6.0625 36.34375 10.765625 
Q 40.375 15.484375 40.375 25.140625 
Q 40.375 35.796875 36.265625 40.765625 
Q 32.171875 45.75 26.171875 45.75 
Q 20.3125 45.75 16.375 40.96875 
Q 12.453125 36.1875 12.453125 25.875 
" id="ArialMT-64"/>
      <path d="M 17.671875 38.8125 
Q 12.203125 40.828125 9.5625 44.53125 
Q 6.9375 48.25 6.9375 53.421875 
Q 6.9375 61.234375 12.546875 66.546875 
Q 18.171875 71.875 27.484375 71.875 
Q 36.859375 71.875 42.578125 66.421875 
Q 48.296875 60.984375 48.296875 53.171875 
Q 48.296875 48.1875 45.671875 44.5 
Q 43.0625 40.828125 37.75 38.8125 
Q 44.34375 36.671875 47.78125 31.875 
Q 51.21875 27.09375 51.21875 20.453125 
Q 51.21875 11.28125 44.71875 5.03125 
Q 38.234375 -1.21875 27.640625 -1.21875 
Q 17.046875 -1.21875 10.546875 5.046875 
Q 4.046875 11.328125 4.046875 20.703125 
Q 4.046875 27.6875 7.59375 32.390625 
Q 11.140625 37.109375 17.671875 38.8125 
M 15.921875 53.71875 
Q 15.921875 48.640625 19.1875 45.40625 
Q 22.46875 42.1875 27.6875 42.1875 
Q 32.765625 42.1875 36.015625 45.375 
Q 39.265625 48.578125 39.265625 53.21875 
Q 39.265625 58.0625 35.90625 61.359375 
Q 32.5625 64.65625 27.59375 64.65625 
Q 22.5625 64.65625 19.234375 61.421875 
Q 15.921875 58.203125 15.921875 53.71875 
M 13.09375 20.65625 
Q 13.09375 16.890625 14.875 13.375 
Q 16.65625 9.859375 20.171875 7.921875 
Q 23.6875 6 27.734375 6 
Q 34.03125 6 38.125 10.046875 
Q 42.234375 14.109375 42.234375 20.359375 
Q 42.234375 26.703125 38.015625 30.859375 
Q 33.796875 35.015625 27.4375 35.015625 
Q 21.234375 35.015625 17.15625 30.90625 
Q 13.09375 26.8125 13.09375 20.65625 
" id="ArialMT-38"/>
     </defs>
     <g style="fill:#262626;" transform="translate(217 173.640625)scale(0.1 -0.1)">
      <use xlink:href="#ArialMT-41"/>
      <use x="66.699219" xlink:href="#ArialMT-72"/>
      <use x="100" xlink:href="#ArialMT-65"/>
      <use x="155.615234" xlink:href="#ArialMT-20"/>
      <use x="183.398438" xlink:href="#ArialMT-75"/>
      <use x="239.013672" xlink:href="#ArialMT-6e"/>
      <use x="294.628906" xlink:href="#ArialMT-64"/>
      <use x="350.244141" xlink:href="#ArialMT-65"/>
      <use x="405.859375" xlink:href="#ArialMT-72"/>
      <use x="439.160156" xlink:href="#ArialMT-20"/>
      <use x="466.943359" xlink:href="#ArialMT-31"/>
      <use x="522.558594" xlink:href="#ArialMT-38"/>
     </g>
    </g>
    <g id="patch_76">
     <path d="M 189 187.785937 
L 209 187.785937 
L 209 180.785937 
L 189 180.785937 
z
" style="fill:#56b4e9;"/>
    </g>
    <g id="text_23">
     <!-- Have children -->
     <g style="fill:#262626;" transform="translate(217 187.785937)scale(0.1 -0.1)">
      <use xlink:href="#ArialMT-48"/>
      <use x="72.216797" xlink:href="#ArialMT-61"/>
      <use x="127.832031" xlink:href="#ArialMT-76"/>
      <use x="177.832031" xlink:href="#ArialMT-65"/>
      <use x="233.447266" xlink:href="#ArialMT-20"/>
      <use x="261.230469" xlink:href="#ArialMT-63"/>
      <use x="311.230469" xlink:href="#ArialMT-68"/>
      <use x="366.845703" xlink:href="#ArialMT-69"/>
      <use x="389.0625" xlink:href="#ArialMT-6c"/>
      <use x="411.279297" xlink:href="#ArialMT-64"/>
      <use x="466.894531" xlink:href="#ArialMT-72"/>
      <use x="500.195312" xlink:href="#ArialMT-65"/>
      <use x="555.810547" xlink:href="#ArialMT-6e"/>
     </g>
    </g>
   </g>
  </g>
  <g id="axes_2">
   <g id="patch_77">
    <path d="M 180 630 
L 1296 630 
L 1296 470.117647 
L 180 470.117647 
z
" style="fill:#e5e5e5;"/>
   </g>
   <g id="matplotlib.axis_3">
    <g id="text_24">
     <!-- Relative weight in no. of people -->
     <defs>
      <path d="M 16.15625 0 
L 0.296875 51.859375 
L 9.375 51.859375 
L 17.625 21.921875 
L 20.703125 10.796875 
Q 20.90625 11.625 23.390625 21.484375 
L 31.640625 51.859375 
L 40.671875 51.859375 
L 48.4375 21.78125 
L 51.03125 11.859375 
L 54 21.875 
L 62.890625 51.859375 
L 71.4375 51.859375 
L 55.21875 0 
L 46.09375 0 
L 37.84375 31.0625 
L 35.84375 39.890625 
L 25.34375 0 
z
" id="ArialMT-77"/>
      <path d="M 9.078125 0 
L 9.078125 10.015625 
L 19.09375 10.015625 
L 19.09375 0 
z
" id="ArialMT-2e"/>
      <path d="M 8.6875 0 
L 8.6875 45.015625 
L 0.921875 45.015625 
L 0.921875 51.859375 
L 8.6875 51.859375 
L 8.6875 57.375 
Q 8.6875 62.59375 9.625 65.140625 
Q 10.890625 68.5625 14.078125 70.671875 
Q 17.28125 72.796875 23.046875 72.796875 
Q 26.765625 72.796875 31.25 71.921875 
L 29.9375 64.265625 
Q 27.203125 64.75 24.75 64.75 
Q 20.75 64.75 19.09375 63.03125 
Q 17.4375 61.328125 17.4375 56.640625 
L 17.4375 51.859375 
L 27.546875 51.859375 
L 27.546875 45.015625 
L 17.4375 45.015625 
L 17.4375 0 
z
" id="ArialMT-66"/>
     </defs>
     <g style="fill:#555555;" transform="translate(173.474375 633.441011)rotate(-90)scale(0.12 -0.12)">
      <use xlink:href="#ArialMT-52"/>
      <use x="72.216797" xlink:href="#ArialMT-65"/>
      <use x="127.832031" xlink:href="#ArialMT-6c"/>
      <use x="150.048828" xlink:href="#ArialMT-61"/>
      <use x="205.664062" xlink:href="#ArialMT-74"/>
      <use x="233.447266" xlink:href="#ArialMT-69"/>
      <use x="255.664062" xlink:href="#ArialMT-76"/>
      <use x="305.664062" xlink:href="#ArialMT-65"/>
      <use x="361.279297" xlink:href="#ArialMT-20"/>
      <use x="389.0625" xlink:href="#ArialMT-77"/>
      <use x="461.279297" xlink:href="#ArialMT-65"/>
      <use x="516.894531" xlink:href="#ArialMT-69"/>
      <use x="539.111328" xlink:href="#ArialMT-67"/>
      <use x="594.726562" xlink:href="#ArialMT-68"/>
      <use x="650.341797" xlink:href="#ArialMT-74"/>
      <use x="678.125" xlink:href="#ArialMT-20"/>
      <use x="705.908203" xlink:href="#ArialMT-69"/>
      <use x="728.125" xlink:href="#ArialMT-6e"/>
      <use x="783.740234" xlink:href="#ArialMT-20"/>
      <use x="811.523438" xlink:href="#ArialMT-6e"/>
      <use x="867.138672" xlink:href="#ArialMT-6f"/>
      <use x="922.753906" xlink:href="#ArialMT-2e"/>
      <use x="950.537109" xlink:href="#ArialMT-20"/>
      <use x="978.320312" xlink:href="#ArialMT-6f"/>
      <use x="1033.935547" xlink:href="#ArialMT-66"/>
      <use x="1061.71875" xlink:href="#ArialMT-20"/>
      <use x="1089.501953" xlink:href="#ArialMT-70"/>
      <use x="1145.117188" xlink:href="#ArialMT-65"/>
      <use x="1200.732422" xlink:href="#ArialMT-6f"/>
      <use x="1256.347656" xlink:href="#ArialMT-70"/>
      <use x="1311.962891" xlink:href="#ArialMT-6c"/>
      <use x="1334.179688" xlink:href="#ArialMT-65"/>
     </g>
    </g>
   </g>
   <g id="patch_78">
    <path clip-path="url(#p441f1cc72c)" d="M 245.266937 470.117647 
L 326.042849 470.117647 
L 326.042849 622.386555 
L 245.266937 622.386555 
z
" style="fill:#0072b2;"/>
   </g>
   <g id="patch_79">
    <path clip-path="url(#p441f1cc72c)" d="M 358.353214 470.117647 
L 439.129126 470.117647 
L 439.129126 510.406694 
L 358.353214 510.406694 
z
" style="fill:#0072b2;"/>
   </g>
   <g id="patch_80">
    <path clip-path="url(#p441f1cc72c)" d="M 471.43949 470.117647 
L 552.215402 470.117647 
L 552.215402 552.292252 
L 471.43949 552.292252 
z
" style="fill:#0072b2;"/>
   </g>
   <g id="patch_81">
    <path clip-path="url(#p441f1cc72c)" d="M 584.525767 470.117647 
L 665.301679 470.117647 
L 665.301679 485.5319 
L 584.525767 485.5319 
z
" style="fill:#0072b2;"/>
   </g>
   <g id="patch_82">
    <path clip-path="url(#p441f1cc72c)" d="M 697.612044 470.117647 
L 778.387956 470.117647 
L 778.387956 488.513869 
L 697.612044 488.513869 
z
" style="fill:#0072b2;"/>
   </g>
   <g id="patch_83">
    <path clip-path="url(#p441f1cc72c)" d="M 810.698321 470.117647 
L 891.474233 470.117647 
L 891.474233 476.20872 
L 810.698321 476.20872 
z
" style="fill:#0072b2;"/>
   </g>
   <g id="patch_84">
    <path clip-path="url(#p441f1cc72c)" d="M 923.784598 470.117647 
L 1004.56051 470.117647 
L 1004.56051 476.435041 
L 923.784598 476.435041 
z
" style="fill:#0072b2;"/>
   </g>
   <g id="patch_85">
    <path clip-path="url(#p441f1cc72c)" d="M 1036.870874 470.117647 
L 1117.646786 470.117647 
L 1117.646786 474.397858 
L 1036.870874 474.397858 
z
" style="fill:#0072b2;"/>
   </g>
   <g id="patch_86">
    <path clip-path="url(#p441f1cc72c)" d="M 1149.957151 470.117647 
L 1230.733063 470.117647 
L 1230.733063 473.314258 
L 1149.957151 473.314258 
z
" style="fill:#0072b2;"/>
   </g>
   <g id="patch_87">
    <path d="M 180 630 
L 180 470.117647 
" style="fill:none;stroke:#ffffff;stroke-linecap:square;stroke-linejoin:miter;"/>
   </g>
   <g id="patch_88">
    <path d="M 1296 630 
L 1296 470.117647 
" style="fill:none;stroke:#ffffff;stroke-linecap:square;stroke-linejoin:miter;"/>
   </g>
   <g id="patch_89">
    <path d="M 180 630 
L 1296 630 
" style="fill:none;stroke:#ffffff;stroke-linecap:square;stroke-linejoin:miter;"/>
   </g>
   <g id="patch_90">
    <path d="M 180 470.117647 
L 1296 470.117647 
" style="fill:none;stroke:#ffffff;stroke-linecap:square;stroke-linejoin:miter;"/>
   </g>
   <g id="text_25">
    <!-- 733.9569 -->
    <defs>
     <path d="M 4.734375 62.203125 
L 4.734375 70.65625 
L 51.078125 70.65625 
L 51.078125 63.8125 
Q 44.234375 56.546875 37.515625 44.484375 
Q 30.8125 32.421875 27.15625 19.671875 
Q 24.515625 10.6875 23.78125 0 
L 14.75 0 
Q 14.890625 8.453125 18.0625 20.40625 
Q 21.234375 32.375 27.171875 43.484375 
Q 33.109375 54.59375 39.796875 62.203125 
z
" id="ArialMT-37"/>
     <path d="M 5.46875 16.546875 
L 13.921875 17.328125 
Q 14.984375 11.375 18.015625 8.6875 
Q 21.046875 6 25.78125 6 
Q 29.828125 6 32.875 7.859375 
Q 35.9375 9.71875 37.890625 12.8125 
Q 39.84375 15.921875 41.15625 21.1875 
Q 42.484375 26.46875 42.484375 31.9375 
Q 42.484375 32.515625 42.4375 33.6875 
Q 39.796875 29.5 35.234375 26.875 
Q 30.671875 24.265625 25.34375 24.265625 
Q 16.453125 24.265625 10.296875 30.703125 
Q 4.15625 37.15625 4.15625 47.703125 
Q 4.15625 58.59375 10.578125 65.234375 
Q 17 71.875 26.65625 71.875 
Q 33.640625 71.875 39.421875 68.109375 
Q 45.21875 64.359375 48.21875 57.390625 
Q 51.21875 50.4375 51.21875 37.25 
Q 51.21875 23.53125 48.234375 15.40625 
Q 45.265625 7.28125 39.375 3.03125 
Q 33.5 -1.21875 25.59375 -1.21875 
Q 17.1875 -1.21875 11.859375 3.4375 
Q 6.546875 8.109375 5.46875 16.546875 
M 41.453125 48.140625 
Q 41.453125 55.71875 37.421875 60.15625 
Q 33.40625 64.59375 27.734375 64.59375 
Q 21.875 64.59375 17.53125 59.8125 
Q 13.1875 55.03125 13.1875 47.40625 
Q 13.1875 40.578125 17.3125 36.296875 
Q 21.4375 32.03125 27.484375 32.03125 
Q 33.59375 32.03125 37.515625 36.296875 
Q 41.453125 40.578125 41.453125 48.140625 
" id="ArialMT-39"/>
     <path d="M 49.75 54.046875 
L 41.015625 53.375 
Q 39.84375 58.546875 37.703125 60.890625 
Q 34.125 64.65625 28.90625 64.65625 
Q 24.703125 64.65625 21.53125 62.3125 
Q 17.390625 59.28125 14.984375 53.46875 
Q 12.59375 47.65625 12.5 36.921875 
Q 15.671875 41.75 20.265625 44.09375 
Q 24.859375 46.4375 29.890625 46.4375 
Q 38.671875 46.4375 44.84375 39.96875 
Q 51.03125 33.5 51.03125 23.25 
Q 51.03125 16.5 48.125 10.71875 
Q 45.21875 4.9375 40.140625 1.859375 
Q 35.0625 -1.21875 28.609375 -1.21875 
Q 17.625 -1.21875 10.6875 6.859375 
Q 3.765625 14.9375 3.765625 33.5 
Q 3.765625 54.25 11.421875 63.671875 
Q 18.109375 71.875 29.4375 71.875 
Q 37.890625 71.875 43.28125 67.140625 
Q 48.6875 62.40625 49.75 54.046875 
M 13.875 23.1875 
Q 13.875 18.65625 15.796875 14.5 
Q 17.71875 10.359375 21.1875 8.171875 
Q 24.65625 6 28.46875 6 
Q 34.03125 6 38.03125 10.484375 
Q 42.046875 14.984375 42.046875 22.703125 
Q 42.046875 30.125 38.078125 34.390625 
Q 34.125 38.671875 28.125 38.671875 
Q 22.171875 38.671875 18.015625 34.390625 
Q 13.875 30.125 13.875 23.1875 
" id="ArialMT-36"/>
    </defs>
    <g style="fill:#262626;" transform="translate(253.344528 632.759705)scale(0.1 -0.1)">
     <use xlink:href="#ArialMT-37"/>
     <use x="55.615234" xlink:href="#ArialMT-33"/>
     <use x="111.230469" xlink:href="#ArialMT-33"/>
     <use x="166.845703" xlink:href="#ArialMT-2e"/>
     <use x="194.628906" xlink:href="#ArialMT-39"/>
     <use x="250.244141" xlink:href="#ArialMT-35"/>
     <use x="305.859375" xlink:href="#ArialMT-36"/>
     <use x="361.474609" xlink:href="#ArialMT-39"/>
    </g>
   </g>
   <g id="text_26">
    <!-- 194.1987 -->
    <g style="fill:#262626;" transform="translate(366.430805 520.779844)scale(0.1 -0.1)">
     <use xlink:href="#ArialMT-31"/>
     <use x="55.615234" xlink:href="#ArialMT-39"/>
     <use x="111.230469" xlink:href="#ArialMT-34"/>
     <use x="166.845703" xlink:href="#ArialMT-2e"/>
     <use x="194.628906" xlink:href="#ArialMT-31"/>
     <use x="250.244141" xlink:href="#ArialMT-39"/>
     <use x="305.859375" xlink:href="#ArialMT-38"/>
     <use x="361.474609" xlink:href="#ArialMT-37"/>
    </g>
   </g>
   <g id="text_27">
    <!-- 396.0928 -->
    <g style="fill:#262626;" transform="translate(479.517082 562.665402)scale(0.1 -0.1)">
     <use xlink:href="#ArialMT-33"/>
     <use x="55.615234" xlink:href="#ArialMT-39"/>
     <use x="111.230469" xlink:href="#ArialMT-36"/>
     <use x="166.845703" xlink:href="#ArialMT-2e"/>
     <use x="194.628906" xlink:href="#ArialMT-30"/>
     <use x="250.244141" xlink:href="#ArialMT-39"/>
     <use x="305.859375" xlink:href="#ArialMT-32"/>
     <use x="361.474609" xlink:href="#ArialMT-38"/>
    </g>
   </g>
   <g id="text_28">
    <!-- 74.2988 -->
    <g style="fill:#262626;" transform="translate(592.603358 495.90505)scale(0.1 -0.1)">
     <use xlink:href="#ArialMT-37"/>
     <use x="55.615234" xlink:href="#ArialMT-34"/>
     <use x="111.230469" xlink:href="#ArialMT-2e"/>
     <use x="139.013672" xlink:href="#ArialMT-32"/>
     <use x="194.628906" xlink:href="#ArialMT-39"/>
     <use x="250.244141" xlink:href="#ArialMT-38"/>
     <use x="305.859375" xlink:href="#ArialMT-38"/>
    </g>
   </g>
   <g id="text_29">
    <!-- 88.6723 -->
    <g style="fill:#262626;" transform="translate(705.689635 498.88702)scale(0.1 -0.1)">
     <use xlink:href="#ArialMT-38"/>
     <use x="55.615234" xlink:href="#ArialMT-38"/>
     <use x="111.230469" xlink:href="#ArialMT-2e"/>
     <use x="139.013672" xlink:href="#ArialMT-36"/>
     <use x="194.628906" xlink:href="#ArialMT-37"/>
     <use x="250.244141" xlink:href="#ArialMT-32"/>
     <use x="305.859375" xlink:href="#ArialMT-33"/>
    </g>
   </g>
   <g id="text_30">
    <!-- 29.3598 -->
    <g style="fill:#262626;" transform="translate(818.775912 486.58187)scale(0.1 -0.1)">
     <use xlink:href="#ArialMT-32"/>
     <use x="55.615234" xlink:href="#ArialMT-39"/>
     <use x="111.230469" xlink:href="#ArialMT-2e"/>
     <use x="139.013672" xlink:href="#ArialMT-33"/>
     <use x="194.628906" xlink:href="#ArialMT-35"/>
     <use x="250.244141" xlink:href="#ArialMT-39"/>
     <use x="305.859375" xlink:href="#ArialMT-38"/>
    </g>
   </g>
   <g id="text_31">
    <!-- 30.4507 -->
    <g style="fill:#262626;" transform="translate(931.862189 486.808191)scale(0.1 -0.1)">
     <use xlink:href="#ArialMT-33"/>
     <use x="55.615234" xlink:href="#ArialMT-30"/>
     <use x="111.230469" xlink:href="#ArialMT-2e"/>
     <use x="139.013672" xlink:href="#ArialMT-34"/>
     <use x="194.628906" xlink:href="#ArialMT-35"/>
     <use x="250.244141" xlink:href="#ArialMT-30"/>
     <use x="305.859375" xlink:href="#ArialMT-37"/>
    </g>
   </g>
   <g id="text_32">
    <!-- 20.6312 -->
    <g style="fill:#262626;" transform="translate(1044.948466 484.771008)scale(0.1 -0.1)">
     <use xlink:href="#ArialMT-32"/>
     <use x="55.615234" xlink:href="#ArialMT-30"/>
     <use x="111.230469" xlink:href="#ArialMT-2e"/>
     <use x="139.013672" xlink:href="#ArialMT-36"/>
     <use x="194.628906" xlink:href="#ArialMT-33"/>
     <use x="250.244141" xlink:href="#ArialMT-31"/>
     <use x="305.859375" xlink:href="#ArialMT-32"/>
    </g>
   </g>
   <g id="text_33">
    <!-- 15.4081 -->
    <g style="fill:#262626;" transform="translate(1158.034742 483.687408)scale(0.1 -0.1)">
     <use xlink:href="#ArialMT-31"/>
     <use x="55.615234" xlink:href="#ArialMT-35"/>
     <use x="111.230469" xlink:href="#ArialMT-2e"/>
     <use x="139.013672" xlink:href="#ArialMT-34"/>
     <use x="194.628906" xlink:href="#ArialMT-30"/>
     <use x="250.244141" xlink:href="#ArialMT-38"/>
     <use x="305.859375" xlink:href="#ArialMT-31"/>
    </g>
   </g>
  </g>
 </g>
 <defs>
  <clipPath id="p4edfd27537">
   <rect height="351.741176" width="1116" x="180" y="86.4"/>
  </clipPath>
  <clipPath id="p441f1cc72c">
   <rect height="159.882353" width="1116" x="180" y="470.117647"/>
  </clipPath>
 </defs>
</svg>
